<svg xmlns="http://www.w3.org/2000/svg" width="71.111" height="71.111" viewBox="0 0 71.111 71.111"><defs><style>.a{fill:#113e82;}.b{fill:#34d159;}</style></defs><g transform="translate(-168.156 -1633.178)"><path class="a" d="M255.991,2383.768a11.009,11.009,0,1,0-13.5,0A13.22,13.22,0,0,0,236,2395.16v4.466a2.082,2.082,0,0,0,2.084,2.083H260.4a2.083,2.083,0,0,0,2.084-2.083v-4.466A13.227,13.227,0,0,0,255.991,2383.768Zm-13.594-8.69a6.843,6.843,0,1,1,6.843,6.841A6.852,6.852,0,0,1,242.4,2375.078Zm15.917,22.464H240.166v-2.382a9.074,9.074,0,0,1,18.148,0v2.382Z" transform="translate(-67.844 -697.42)"/><path class="a" d="M309.212,2317H282.434a8.774,8.774,0,0,0-8.778,8.775v40.171a2.084,2.084,0,0,0,3.334,1.664l8.37-6.279h23.852a8.77,8.77,0,0,0,8.778-8.775v-26.781a8.774,8.774,0,0,0-8.778-8.775Zm4.611,35.556a4.607,4.607,0,0,1-4.611,4.608H284.665a2.086,2.086,0,0,0-1.25.42l-5.592,4.2v-36a4.606,4.606,0,0,1,4.611-4.608h26.778a4.607,4.607,0,0,1,4.611,4.608Z" transform="translate(-78.723 -683.822)"/><path class="b" d="M310.606,2332.69H288.292a2.084,2.084,0,0,0,0,4.167h22.315a2.084,2.084,0,0,0,0-4.167Z" transform="translate(-82.349 -688.355)"/><path class="b" d="M310.606,2345.24H288.292a2.084,2.084,0,0,0,0,4.167h22.315a2.084,2.084,0,0,0,0-4.167Z" transform="translate(-82.349 -691.98)"/><path class="b" d="M299.449,2357.79H288.292a2.083,2.083,0,1,0,0,4.167h11.157a2.083,2.083,0,0,0,0-4.167Z" transform="translate(-82.349 -695.606)"/></g></svg>