<svg xmlns="http://www.w3.org/2000/svg" width="51" height="48.283" viewBox="0 0 51 48.283"><defs><style>.a{fill:#113e82;}.b{fill:none;stroke:#34d159;stroke-linecap:round;stroke-width:3px;}</style></defs><g transform="translate(-722 -2551.519)"><path class="a" d="M1019.515,3694.9a1.755,1.755,0,0,0-3.5,0l-.014.256v8.8l.014.434a6.693,6.693,0,0,0,6.069,6.46l.4.014h8.246l.242-.014a1.907,1.907,0,0,0,0-3.735l-.242-.021h-8.246l-.306-.015a3.05,3.05,0,0,1-2.625-2.8l-.014-.32v-8.8Z" transform="translate(-293.158 -1111.062)"/><path class="a" d="M1076.85,3694.9a1.887,1.887,0,0,0-3.756.256v8.8l-.014.32a3.141,3.141,0,0,1-3.123,2.817h-8.8l-.256.021a1.883,1.883,0,0,0,.256,3.75h8.8l.42-.014a6.906,6.906,0,0,0,6.489-6.894v-8.8Z" transform="translate(-305.644 -1111.062)"/><path class="a" d="M1019.515,3694.9a1.755,1.755,0,0,0-3.5,0l-.014.256v8.8l.014.434a6.693,6.693,0,0,0,6.069,6.46l.4.014h8.246l.242-.014a1.907,1.907,0,0,0,0-3.735l-.242-.021h-8.246l-.306-.015a3.05,3.05,0,0,1-2.625-2.8l-.014-.32v-8.8Z" transform="translate(1787.221 6262.383) rotate(180)"/><path class="a" d="M1076.85,3694.9a1.887,1.887,0,0,0-3.756.256v8.8l-.014.32a3.141,3.141,0,0,1-3.123,2.817h-8.8l-.256.021a1.883,1.883,0,0,0,.256,3.75h8.8l.42-.014a6.906,6.906,0,0,0,6.489-6.894v-8.8Z" transform="translate(1799.706 6262.383) rotate(180)"/><line class="b" x2="48" transform="translate(723.5 2575.5)"/></g></svg>