<svg xmlns="http://www.w3.org/2000/svg" width="610.657" height="399" viewBox="0 0 610.657 399"><defs><style>.a{fill:#eef5ff;}.b{fill:#fff;}.c{fill:#0f4599;}.d{fill:#bae2ff;}.e{fill:#1480cc;}.f{fill:#ebf3ff;}.g{fill:#3397ff;}.h{fill:#e3eeff;}.i{fill:#cce5ff;}.j{fill:#66b8ff;}.k{opacity:0.5;mix-blend-mode:darken;isolation:isolate;}.l{fill:#61b3f2;}.m{fill:#2e97e6;}.n{fill:#0e0e0e;}.o{fill:#2475b3;}.p{fill:#3f9ee6;}.q{fill:#1a5380;}.r{fill:#e6e6e6;}.s{fill:#999;}.t{fill:gray;}.u{fill:#666;}.v{fill:#f7af0c;}.w{fill:#cc840a;}.x{fill:#803d00;}.y{fill:#e6950b;}.z{fill:#f7e4ad;}.aa{fill:#4582e6;}.ab{fill:#3d73cc;}.ac{fill:#002e73;}.ad{fill:#231f20;}.ae{fill:#f7a594;}.af{fill:#e6836f;}.ag{fill:#73382a;}.ah{fill:#d9ffff;}.ai{fill:#007880;}.aj{fill:#008f99;}</style></defs><g transform="translate(-391.641 -450.686)"><g transform="translate(391.641 460.375)"><path class="a" d="M996.62,2167.244H393.572a1.931,1.931,0,1,1,0-3.862H996.62a1.931,1.931,0,1,1,0,3.862Z" transform="translate(-391.641 -1777.933)"/><rect class="b" width="193.789" height="181.213" transform="translate(610.657 181.213) rotate(180)"/><rect class="b" width="130.482" height="117.257" transform="translate(226.126 322.049) rotate(180)"/></g><g transform="translate(539.959 493.21)"><g transform="translate(0)"><path class="b" d="M1425.371,883.874V867.6a13.38,13.38,0,0,1,13.379-13.383h142.457a13.383,13.383,0,0,1,13.383,13.383v287.7H1226.1V883.874Z" transform="translate(-1181.897 -803.641)"/><path class="c" d="M1420.24,883.874V867.6a13.38,13.38,0,0,1,13.379-13.383h142.457A13.383,13.383,0,0,1,1589.46,867.6v287.7H1220.966V883.874Z" transform="translate(-1177.95 -803.641)"/><path class="d" d="M1626.449,1027.251v260.182H1285.094V1025.973Z" transform="translate(-1227.283 -935.772)"/><path class="e" d="M1545.215,1027.251v260.182H1203.86V1025.973Z" transform="translate(-1164.791 -935.772)"/><path class="b" d="M1084.827,982.777h337.234a12.81,12.81,0,0,1,13.014,11.161V1254.2H1067.016V1000.541C1066.933,991.193,1075.37,982.777,1084.827,982.777Z" transform="translate(-1059.518 -902.542)"/><g transform="translate(149.009 27.059)"><g transform="translate(0)"><rect class="f" width="197.102" height="149.793" transform="translate(197.101 150.344) rotate(-179.84)"/><rect class="g" width="187.02" height="137.706" transform="translate(192.181 143.132) rotate(-179.84)"/><path class="h" d="M2044.3,1113.253l-120.185-.337,65.713-63.042Z" transform="translate(-1867.886 -981.219)"/><path class="h" d="M1871.462,1149.246l-100.982-.283,54.8-52.1Z" transform="translate(-1749.694 -1017.365)"/><circle class="h" cx="13.918" cy="13.918" r="13.918" transform="translate(64.726 54.632) rotate(-45)"/></g></g><g transform="translate(122.755)"><g transform="translate(0)"><rect class="f" width="182.729" height="158.909" transform="matrix(-1, -0.003, 0.003, -1, 182.728, 159.494)"/><rect class="g" width="172.353" height="146.087" transform="translate(177.666 151.843) rotate(-179.815)"/></g><g transform="translate(21.555 25.924)"><rect class="i" width="68.642" height="6.031" transform="translate(71.011)"/><rect class="i" width="139.654" height="6.031" transform="translate(139.654 22.316) rotate(180)"/><rect class="i" width="139.654" height="6.031" transform="translate(139.654 38.896) rotate(180)"/></g></g><path class="j" d="M1077.788,982.777h337.234a12.81,12.81,0,0,1,13.014,11.161v261.2H1059.978v-254.6C1059.9,991.193,1068.331,982.777,1077.788,982.777Z" transform="translate(-1054.104 -902.542)"/><rect class="b" width="37.137" height="1.497" transform="translate(412.694 351.661) rotate(180)"/><path class="k" d="M1472.212,1459.925l-13.527,8.826h-17.873l-5.736,4.413v-4.193H1067.017v-9.047Z" transform="translate(-1059.519 -1269.607)"/><g transform="translate(0 147.136)"><rect class="l" width="417.922" height="47.22" transform="translate(417.922 47.22) rotate(180)"/><rect class="m" width="380.3" height="47.22" transform="translate(380.3 47.22) rotate(180)"/></g><g transform="translate(203.744 146.845)"><path class="n" d="M2117.014,1272.754v47.2H2083.97l23.169-47.2Z" transform="translate(-2045.594 -1272.463)"/><g transform="translate(60)"><g transform="translate(0 0.307)"><path class="o" d="M2177.695,1296.365c0,6.532,1.142,12.445,3.06,16.7,1.872,4.355,4.475,6.948,7.351,6.948h8.775v-47.188h-8.775C2182.353,1272.823,2177.695,1283.4,2177.695,1296.365Zm8.311,7.778c-1.643-.519-2.922-3.732-2.922-7.778,0-3.94,1.279-7.155,2.922-7.674,1.644.519,2.923,3.734,2.923,7.674C2188.929,1300.411,2187.65,1303.624,2186.006,1304.143Z" transform="translate(-2177.695 -1272.823)"/><g transform="translate(4.47)"><path class="p" d="M2197.072,1296.365c0,6.532,1.195,12.445,3.2,16.7,1.959,4.355,4.682,6.948,7.693,6.948h3.822v-47.188h-3.822C2201.945,1272.823,2197.072,1283.4,2197.072,1296.365Zm4.205,0c0-3.94,2.484-7.155,4.2-7.674,1.72.519,3.058,3.734,3.058,7.674,0,4.046-1.338,7.259-3.058,7.778C2203.761,1303.624,2201.277,1300.411,2201.277,1296.365Z" transform="translate(-2197.072 -1272.823)"/></g></g><g transform="translate(4.176)"><path class="o" d="M2195.918,1296.365c0,6.532,1.142,12.445,3.06,16.7,1.871,4.355,4.475,6.948,7.351,6.948h8.775v-47.188h-8.775C2200.575,1272.823,2195.918,1283.4,2195.918,1296.365Zm8.311,7.778c-1.643-.519-2.922-3.732-2.922-7.778,0-3.94,1.279-7.155,2.922-7.674,1.645.519,2.923,3.734,2.923,7.674C2207.152,1300.411,2205.873,1303.624,2204.229,1304.143Z" transform="translate(-2195.89 -1272.516)"/><g transform="translate(4.499 0.307)"><path class="l" d="M2215.295,1296.365c0,6.532,1.194,12.445,3.2,16.7,1.959,4.355,4.682,6.948,7.692,6.948h3.822v-47.188h-3.822C2220.168,1272.823,2215.295,1283.4,2215.295,1296.365Zm4.2,0c0-3.94,1.338-7.155,3.057-7.674,1.721.519,3.059,3.734,3.059,7.674,0,4.046-1.338,7.259-3.059,7.778C2220.837,1303.624,2219.5,1300.411,2219.5,1296.365Z" transform="translate(-2215.295 -1272.823)"/></g><path class="q" d="M2206.194,1319.3a7.251,7.251,0,0,1-4.772-2.27c-2.566-2.464-5.625-8.03-5.625-20.552,0-11.929,2.789-18.07,5.129-21.121,2.576-3.359,5.15-3.837,5.258-3.855a.307.307,0,0,1,.105.605h0c-.025,0-2.484.476-4.917,3.678-2.263,2.979-4.962,8.988-4.962,20.693,0,12.277,2.944,17.7,5.413,20.086a6.667,6.667,0,0,0,4.4,2.121.307.307,0,0,1,.024.614Z" transform="translate(-2195.796 -1271.492)"/></g></g><g transform="translate(11.513 16.705)"><path class="r" d="M2236.763,1360.423c.416.1.724.208,1.14.312-.1.1-.1.1,0,.1a40.473,40.473,0,0,1,29.039,38.683v39.42h13.275v-39.42a53.689,53.689,0,0,0-41.9-52.27,8.491,8.491,0,0,0-1.555-.413C2232.925,1346.008,2232.614,1359.8,2236.763,1360.423Z" transform="translate(-2172.344 -1346.132)"/><path class="r" d="M2016.238,1343.9v13.2a40.754,40.754,0,0,0-34.6,31.487,4.389,4.389,0,0,0-.208,1.036,24.224,24.224,0,0,0-.416,2.7,40.12,40.12,0,0,0-.311,4.978v39.42h-13.171V1397.3A53.846,53.846,0,0,1,2016.238,1343.9Z" transform="translate(-1967.532 -1343.897)"/><path class="s" d="M2239.328,1387.7c31.127,5.459,35.136,39.349,35.136,39.349v43.074h-4.669V1430.7a40.606,40.606,0,0,0-30.15-39.08c-1.322-.429-2.146-4.3-2.146-4.3S2238.316,1387.5,2239.328,1387.7Z" transform="translate(-2175.214 -1377.302)"/><path class="t" d="M2063.272,1388.958v2.805a40.754,40.754,0,0,0-34.6,31.487C2029.415,1413.567,2037.444,1392.406,2063.272,1388.958Z" transform="translate(-2014.565 -1378.562)"/><path class="u" d="M2236.763,1360.423c.416.1.724.208,1.14.312a13.981,13.981,0,0,1-2.206-6.654c-.208-4.046,1.166-6.781,2.621-6.828a8.491,8.491,0,0,0-1.555-.413C2232.925,1346.008,2232.614,1359.8,2236.763,1360.423Z" transform="translate(-2172.344 -1346.132)"/></g><g transform="translate(0 98.766)"><rect class="v" width="130.777" height="106.902" transform="translate(0)"/><g transform="translate(49.932 26.303)"><path class="w" d="M2151.48,1813.7a5.008,5.008,0,0,0-1.246-.1,16.188,16.188,0,0,0-16.179,16.228,16.444,16.444,0,0,0,9.543,14.866v27.533a6.715,6.715,0,0,0,6.636,6.7,3.5,3.5,0,0,0,1.038-.1h.309a6.731,6.731,0,0,0,5.292-6.6v-27.533a16.331,16.331,0,0,0,9.541-14.866A16.085,16.085,0,0,0,2151.48,1813.7Z" transform="translate(-2134.056 -1813.592)"/><path class="x" d="M2159.434,1814.046a16.1,16.1,0,0,0-15.04,16.123,16.444,16.444,0,0,0,9.543,14.866v27.533a6.728,6.728,0,0,0,5.289,6.6h.309a6.731,6.731,0,0,0,5.292-6.6v-27.533a16.331,16.331,0,0,0,9.541-14.866A16.085,16.085,0,0,0,2159.434,1814.046Z" transform="translate(-2142.009 -1813.941)"/></g><path class="y" d="M1959.129,1806.487h-41.5v-106.9h11.513S1926.085,1778.463,1959.129,1806.487Z" transform="translate(-1917.63 -1699.586)"/><path class="z" d="M2362.772,1806.487c9.911-21.208,8.063-78.224,8.063-106.9h13.171v106.9Z" transform="translate(-2260.073 -1699.586)"/></g></g></g></g><g transform="translate(502.784 450.686)"><path class="aa" d="M1212.207,995.749s-13.418-.435-26.639.2c-13.734.671-27.271,2.486-25.337,7.222a5.035,5.035,0,0,1,.276,3.118c-2.763,12.668-52.844,22.139-63.895,14.365-8.248-5.8-30.98,1.657-40.294,5.683-17.738-118.732-18.233-240.108-2.526-248.553,15.707-8.407,59.238,2.25,59.238,2.25s22.061,5.841,31.059,66.184C1153.127,906.517,1212.207,995.749,1212.207,995.749Z" transform="translate(-1003.474 -699.832)"/><path class="ab" d="M1432.284,1332.615a5.035,5.035,0,0,1,.276,3.118c-13.576-41.4-45.543-159.678-33.94-127.434,11.129,31.1,46.056,94.085,59,117.093C1443.887,1326.063,1430.35,1327.879,1432.284,1332.615Z" transform="translate(-1275.527 -1029.278)"/><g transform="translate(0 78.415)"><path class="ac" d="M922.062,821.5c-12.905,15.786-15.273,19.614-27.35,20.444a21.143,21.143,0,0,1,8.13,9.787h.039c3.552,7.775,4.065,16.852,10.261,21.942l-7.419,7.3-1.894,1.894s-.276-.237-.75-.671c-3.236-3-16.1-15.115-23.758-26.245-4.5-6.472-7.222-12.589-5.328-16.417,3.078-11.129,10.971-33.98,31.059-40.808,13.182-14.326,26.086-6.63,30.665-.671C941.834,806.027,935.677,823.076,922.062,821.5Z" transform="translate(-873.383 -790.569)"/><path class="ad" d="M932.943,1077.6l-7.419,7.3-2.644,1.224c-3.039-2.841-14.641-13.735-22.377-24.311-.473-.631-.947-1.3-1.381-1.934,3.828-.039,16.141-.355,23.521-4.222h.04a21.625,21.625,0,0,1,.829,2.012C926.352,1064.934,927.26,1072.946,932.943,1077.6Z" transform="translate(-893.183 -994.501)"/><path class="j" d="M923.51,1057.672c-8.169,4.974-17.523,4.815-23.009,4.144-.473-.631-.947-1.3-1.381-1.934,3.828-.039,16.141-.355,23.521-4.222h.04A21.625,21.625,0,0,1,923.51,1057.672Z" transform="translate(-893.183 -994.501)"/><path class="ad" d="M990.784,1121.564s8.453.785,11.012,3.01a3.382,3.382,0,0,1,.832,4.181c4.549,2.558,0,12.48-7.943,14.929s-13.148-12.513-13.148-12.513S982.747,1122.1,990.784,1121.564Z" transform="translate(-956.585 -1045.2)"/></g><g transform="translate(58.539 145.009)"><g transform="translate(48.747 216.993)"><path class="ad" d="M1371.968,2053.319h-28.677a3.422,3.422,0,0,1-1.286-1.152c-1.477-21.328-3.6-31.6-3.6-31.6l19.973-.813,4.521,15.867C1369.586,2040.2,1377.563,2050.007,1371.968,2053.319Z" transform="translate(-1338.402 -2019.757)"/><path class="ad" d="M1347.8,2151.13h34c.862,0,.573-4.728-.289-4.728l-33.8.19C1346.83,2146.592,1346.917,2151.13,1347.8,2151.13Z" transform="translate(-1345.088 -2117.183)"/></g><path class="ac" d="M1166.728,1102.616c4.64,12.485,24.386,69.688,18.749,110.871,7.754,27.387,5.32,50.585,12.312,90.582l-20.354,1.072c-8.273-48.8-17.377-39.489-20.011-87.818-16.771-37.894-25.469-73.793-29.931-110.753C1123.152,1078.708,1157.36,1064.077,1166.728,1102.616Z" transform="translate(-1127.114 -1079.218)"/><g transform="translate(33.069 138.021)"><path class="ad" d="M1287.911,1767.441s-1.524-14.523-11.1-42.268c-2.973-8.525-4.585-14.168-5.422-17.641a37.127,37.127,0,0,1-.943-4.855,144.212,144.212,0,0,0,17.145-25.218c6.228,9.748,13.641,19.5,13.641,19.5s.189,2.288.526,6.038c1.5,15.707,5.54,57.225,7.974,66.026C1312.739,1779.912,1293.816,1786.108,1287.911,1767.441Z" transform="translate(-1270.447 -1677.46)"/><path class="j" d="M1301.758,1702.994a159.563,159.563,0,0,1-14-17.917c-2.22,8.051-11.54,17.8-16.369,22.457a37.127,37.127,0,0,1-.943-4.855,144.212,144.212,0,0,0,17.145-25.218c6.228,9.748,13.641,19.5,13.641,19.5S1301.421,1699.245,1301.758,1702.994Z" transform="translate(-1270.447 -1677.46)"/></g></g><g transform="translate(8.379 147.297)"><path class="ac" d="M1032.873,1115.536a629.649,629.649,0,0,1-11.131,100.571c4.1,37.1-5.229,44.017-9.446,97.095l-18.4-.244c-.047-21.543-1.3-48.223-2.6-91.42-11.582-45.145-6-78.394-1.685-105.382C994.219,1085.5,1035.814,1075.357,1032.873,1115.536Z" transform="translate(-967.17 -1089.132)"/><path class="ad" d="M958.293,2059.531c1.641,8.789,2.819,15.645,2.13,23.6l-44.554.867s-4.41-4.3,1.135-10.738,16.074-2.714,22.893-13.971Z" transform="translate(-913.167 -1835.462)"/><path class="ad" d="M910.381,2151.13h47.335c.862,0,.636-4.728-.226-4.728l-47.135.19C909.468,2146.592,909.494,2151.13,910.381,2151.13Z" transform="translate(-909.703 -1902.478)"/><g transform="translate(21.65 140.076)"><path class="ad" d="M1035.867,1720.273l-.862,4.262c-2.241,11.721-8.253,44.438-7.549,59.159-8.363,9.985-19.233-1.1-19.233-1.1l-4.382-80.865-.3-5.446A100.756,100.756,0,0,0,1035.867,1720.273Z" transform="translate(-1003.541 -1696.279)"/><path class="j" d="M1035.867,1720.273l-.862,4.262c-16.25-4.735-26.254-15.865-31.164-22.811l-.3-5.446A100.756,100.756,0,0,0,1035.867,1720.273Z" transform="translate(-1003.541 -1696.279)"/></g></g><path class="ac" d="M1008.865,871.8c0,9.4,66.782,6.682,66.782-2.722a136.583,136.583,0,0,1,4.835-38.839c20.022-19.616,18.828-34.841,13.754-43.1-8.749-14.244-52.946-13.436-68.857-7.314-6.319,2.432-14.8,12.337-17.518,28.127-1.4,8.118,4.583,17.572,5.527,24.135C1015.573,847.277,1009.309,869.624,1008.865,871.8Z" transform="translate(-976.673 -700.675)"/><path class="ae" d="M1165.283,709.763c3.295-2.617,16.439-6.656,19.935-9.518l-.789-22.816-12.923-1.258a38.406,38.406,0,0,0-10.72,2.482l-2.909,15.024-.642,3.258C1155.772,700.141,1158.671,704.007,1165.283,709.763Z" transform="translate(-1091.461 -624.149)"/><path class="af" d="M1183.458,697.624c-2.027,3.12-10.515,11.109-22.2,11.081l2.517-13Z" transform="translate(-1094.84 -639.178)"/><g transform="translate(57.217 9.905)"><path class="ae" d="M1124.184,518.239c-1.013,4.5-3.1,14.364-2.76,18.909.52,6.92,6.983,14.594,12.619,15.6,6.525.665,15.32-1.278,20.095-5.381,2.658-3.115,7.8-10.5,10.169-16.971,4.938-13.491-4.595-25.321-16.688-28.053S1127.343,504.225,1124.184,518.239Z" transform="translate(-1121.386 -499.755)"/><path class="ag" d="M1179.491,533.175c2.522-4.439-.829-6.237-4.5-2.791.628-3.349,4.447-13.163,1.065-16.417-3.821-3.776-20.632-2.133-29.663-11.549,0,0,6.731-14.759,28.826-6.043C1200.17,509.606,1179.491,533.175,1179.491,533.175Z" transform="translate(-1140.621 -493.62)"/><ellipse class="ae" cx="5.446" cy="4.233" rx="5.446" ry="4.233" transform="translate(32.285 39.495) rotate(-50.277)"/></g><path class="ac" d="M1148.518,741.609c2.209,3.944,24.929,1.893,26.98-1.42l1.263,12.622L1155.618,764.8l-11.044-12.149Z" transform="translate(-1082.007 -673.397)"/><path class="ad" d="M1176.4,491.09c-.622-11.048-22.007-26.64-37.346-20.852-10.347,3.9-7.92,14.887,1.089,16.961C1148.083,489.028,1170.084,479.506,1176.4,491.09Z" transform="translate(-1072.548 -464.766)"/><path class="ad" d="M1135.547,456.193a14.2,14.2,0,0,1,2.155-5.507c-12,7.862-6.029,17.264-5.888,17.665,4.76-14.454,16.117-13.79,20.151-13.739C1141.588,449.728,1135.65,455.76,1135.547,456.193Z" transform="translate(-1070.953 -450.686)"/><path class="j" d="M1001.957,1206.265c17.422,7.514,57.669,5.86,69.7.1l3.076,10.189c-26.169,6.168-51.206,6.342-74.975-.193Z" transform="translate(-970.599 -1031.944)"/><g transform="translate(92.244 82.725)"><path class="ac" d="M1328.9,876.952c-11.524,12.352-35.835,26.442-35.835,26.442l-7.459-10.735c7.735-4.262,12-15.313,19.377-22.89a26.123,26.123,0,0,1,8.88-6.2c-11.76-3.039-17.681-5.959-27.468-23.837-13.694-.947-16.655-18.863-9.2-25.534,5.6-5.012,19.733-10.26,30.073,6.236,18.47,10.379,26.363,33.032,27.35,44.557C1335.529,868.269,1333.042,872.492,1328.9,876.952Z" transform="translate(-1273.208 -809.25)"/><path class="ad" d="M1304.318,1145.848s-8.454-.773-11.376.947a3.381,3.381,0,0,0-1.583,3.958c-4.941,1.684-2.282,12.27,5.08,16.13s15.214-9.9,15.214-9.9S1312.122,1147.841,1304.318,1145.848Z" transform="translate(-1285.234 -1068.058)"/><path class="ad" d="M1370.234,1078.751c-.71.75-1.46,1.539-2.25,2.289-12.155,11.76-33.585,24.153-33.585,24.153l-7.459-10.734c6.67-3.671,10.735-12.353,16.457-19.536a39.663,39.663,0,0,1,2.921-3.354A56.432,56.432,0,0,0,1370.234,1078.751Z" transform="translate(-1314.544 -1011.048)"/><path class="j" d="M1425.109,1078.751c-.71.75-1.46,1.539-2.25,2.289-10.419-.513-20.206-4.262-24.587-6.118a39.661,39.661,0,0,1,2.921-3.354A56.432,56.432,0,0,0,1425.109,1078.751Z" transform="translate(-1369.419 -1011.048)"/></g><g transform="translate(58.117 96.565)"><path class="ah" d="M1221.253,903.028h0l.007-.06Z" transform="translate(-1199.112 -895.186)"/><path class="ah" d="M1221.253,903.028h0l.007-.06Z" transform="translate(-1199.112 -895.186)"/><path class="ah" d="M1130.831,890.057l.007-.06-.007.06Z" transform="translate(-1129.552 -885.208)"/><path class="ah" d="M1130.831,890.057l.007-.06-.007.06Z" transform="translate(-1129.552 -885.208)"/><path class="b" d="M1137.724,869.239a21.211,21.211,0,0,0,9.688,7.853c-.036.31-.238,2.024-1.167,9.926-1.239,10.541-10.848,14.355-12.338,14.938-1.267-.895-9.738-7.386-8.5-17.927.929-7.9,1.13-9.617,1.167-9.926A19.757,19.757,0,0,0,1137.724,869.239Z" transform="translate(-1125.286 -869.239)"/><path class="v" d="M1146.548,893.507l-.018.013a15.829,15.829,0,0,1-7.472,3.09l-.793,6.741a12.388,12.388,0,0,0,2.323,8.751,16.538,16.538,0,0,0,3.261,3.457l.1.076a15.328,15.328,0,0,0,4.063-2.468,11.784,11.784,0,0,0,4.269-7.8l.792-6.741A16.892,16.892,0,0,1,1146.548,893.507Z" transform="translate(-1135.205 -887.908)"/></g><path class="j" d="M1105.593,779.6c1.132,2.913,4.913,5.478,9.177,7.979a60.632,60.632,0,0,0,21.8-7.9c6.393-.03,10.992,2.43,15.724,4.245l-37.749,6.143-22.173-8.371C1095.32,780.627,1099.542,779.9,1105.593,779.6Z" transform="translate(-1041.848 -703.719)"/><g transform="translate(82.062 124.64)"><path class="ah" d="M1711.8,1118.2h0c0-.186,0-.268,0-.286C1711.8,1117.951,1711.8,1118.2,1711.8,1118.2Z" transform="translate(-1600.428 -1088.619)"/><path class="ah" d="M1711.8,1118.2h0c0-.186,0-.268,0-.286C1711.8,1117.951,1711.8,1118.2,1711.8,1118.2Z" transform="translate(-1600.428 -1088.619)"/><path class="ah" d="M1229.076,1123.518s0-.252,0-.286c0,.019,0,.1,0,.286Z" transform="translate(-1229.073 -1092.708)"/><path class="ah" d="M1229.076,1123.518s0-.252,0-.286c0,.019,0,.1,0,.286Z" transform="translate(-1229.073 -1092.708)"/><path class="b" d="M1284.565,990.927c13.07,13.753,33.855,24.959,56.048,29.646.016,1.473.107,9.636.525,47.257.558,50.187-47.264,75.027-54.689,78.84-7.24-3.26-55.992-27.428-56.549-77.615-.418-37.622-.509-45.784-.525-47.257C1251.458,1016.623,1271.8,1004.965,1284.565,990.927Z" transform="translate(-1229.305 -990.927)"/><g transform="translate(6.181 9.07)"><path class="ai" d="M1469.063,1030.24c12.786,11.522,30.454,20.528,49.849,25.373l.473,42.522c.216,19.457-7.433,37.109-22.735,52.47a110.412,110.412,0,0,1-26.035,19.213c-.233-.116-.489-.246-.74-.375l-.921-139.1C1468.989,1030.306,1469.027,1030.274,1469.063,1030.24Z" transform="translate(-1419.791 -1030.24)"/><path class="aj" d="M1305.026,1030.672l.921,139.1a110.485,110.485,0,0,1-25.716-18.26c-15.639-15.02-23.678-32.5-23.894-51.957l-.473-42.522C1275.091,1051.781,1292.508,1042.425,1305.026,1030.672Z" transform="translate(-1255.864 -1030.572)"/></g><g transform="translate(33.252 47.421)"><path class="b" d="M1373.2,1295.986l.218,32.943c.024,3.667,45.018,3.372,44.994-.3l-.218-32.943Zm17.021,12.324a5.558,5.558,0,1,1,7.868,4.986l.062,9.358a2.276,2.276,0,1,1-4.552.03l-.062-9.337A5.517,5.517,0,0,1,1390.221,1308.31Z" transform="translate(-1373.2 -1272.799)"/><path class="b" d="M1390.152,1217.281l4.555-.03-.015-2.218a14,14,0,0,1,28.005-.184l.015,2.218,4.554-.03-.015-2.218a18.558,18.558,0,0,0-37.115.244Z" transform="translate(-1386.23 -1196.468)"/></g></g></g></g></svg>