<svg xmlns="http://www.w3.org/2000/svg" xmlns:xlink="http://www.w3.org/1999/xlink" width="63" height="63" viewBox="0 0 63 63"><defs><style>.a{fill:#34d159;}.b{clip-path:url(#a);}</style><clipPath id="a"><rect class="a" width="63" height="63" transform="translate(0.421 -0.146)"/></clipPath></defs><g class="b" transform="translate(-0.421 0.146)"><path class="a" d="M1456.81,2980.122l7.342,5.023a.678.678,0,0,1,0,1.117l-7.342,5.023a.677.677,0,0,1-1.06-.562v-10.046A.677.677,0,0,1,1456.81,2980.122Z" transform="translate(-1424.624 -2980.001)"/><path class="a" d="M1452.613,3064.255l-7.342-5.023a.678.678,0,0,1,0-1.117l7.342-5.023a.678.678,0,0,1,1.06.562V3063.7A.678.678,0,0,1,1452.613,3064.255Z" transform="translate(-1421.515 -3001.056)"/><path class="a" d="M1420.688,3013.214a24.008,24.008,0,0,0,10.224,19.679,1.977,1.977,0,0,1,.1,3.18l-.028.021a1.976,1.976,0,0,1-2.355.079,28.016,28.016,0,0,1-11.938-22.959c0-15.4,12.749-27.889,28.11-28.024v4A24.308,24.308,0,0,0,1420.688,3013.214Z" transform="translate(-1413.353 -2981.498)"/><path class="a" d="M1480.867,3014.966a24,24,0,0,0-10.231-19.679,1.981,1.981,0,0,1-.1-3.18l.028-.021a1.976,1.976,0,0,1,2.355-.078,28,28,0,0,1,11.938,22.959,28.292,28.292,0,0,1-28.088,28.024v-4A24.291,24.291,0,0,0,1480.867,3014.966Z" transform="translate(-1424.918 -2983.363)"/><path class="a" d="M1463.412,3017.831l-15.062,12.493a3.977,3.977,0,0,1-2.533.911,3.311,3.311,0,0,1-.462-.028,3.948,3.948,0,0,1-2.711-1.558l-4.674-6.232a3.189,3.189,0,1,1,5.1-3.828l3.159,4.212.021-.021,13.091-10.857a3.188,3.188,0,0,1,4.07,4.909Z" transform="translate(-1419.308 -2989.287)"/><path class="a" d="M1467.03,3017.831l-12.024,9.974a16.234,16.234,0,0,1-5.137-4.027l13.091-10.857a3.188,3.188,0,0,1,4.07,4.909Z" transform="translate(-1422.927 -2989.287)"/></g></svg>