<svg xmlns="http://www.w3.org/2000/svg" xmlns:xlink="http://www.w3.org/1999/xlink" width="370" height="381" viewBox="0 0 370 381"><defs><style>.a{fill:#113e82;}.b{fill:#fff;}.c{filter:url(#d);}.d{filter:url(#a);}</style><filter id="a"><feOffset dy="15" input="SourceAlpha"/><feGaussianBlur stdDeviation="16.5" result="b"/><feFlood flood-opacity="0.161" result="c"/><feComposite operator="out" in="SourceGraphic" in2="b"/><feComposite operator="in" in="c"/><feComposite operator="in" in2="SourceGraphic"/></filter><filter id="d"><feOffset dy="7" input="SourceAlpha"/><feGaussianBlur stdDeviation="11.5" result="e"/><feFlood flood-opacity="0.11" result="f"/><feComposite operator="out" in="SourceGraphic" in2="e"/><feComposite operator="in" in="f"/><feComposite operator="in" in2="SourceGraphic"/></filter></defs><g transform="translate(-840 -930)"><g data-type="innerShadowGroup"><path class="a" d="M32,0H328a32,32,0,0,1,32,32V381a0,0,0,0,1,0,0H0a0,0,0,0,1,0,0V32A32,32,0,0,1,32,0Z" transform="translate(845 930)"/><g class="d" transform="matrix(1, 0, 0, 1, 840, 930)"><path class="b" d="M32,0H328a32,32,0,0,1,32,32V381a0,0,0,0,1,0,0H0a0,0,0,0,1,0,0V32A32,32,0,0,1,32,0Z" transform="translate(5)"/></g></g><g data-type="innerShadowGroup"><path class="b" d="M22,0H314a22,22,0,0,1,22,22V369a0,0,0,0,1,0,0H0a0,0,0,0,1,0,0V22A22,22,0,0,1,22,0Z" transform="translate(857 942)"/><g class="c" transform="matrix(1, 0, 0, 1, 840, 930)"><path class="b" d="M22,0H314a22,22,0,0,1,22,22V369a0,0,0,0,1,0,0H0a0,0,0,0,1,0,0V22A22,22,0,0,1,22,0Z" transform="translate(17 12)"/></g></g><rect class="a" width="9" height="49" rx="1" transform="translate(840 1021)"/><rect class="a" width="9" height="49" rx="1" transform="translate(1201 1021)"/><rect class="a" width="9" height="49" rx="1" transform="translate(840 1091)"/></g></svg>