<svg xmlns="http://www.w3.org/2000/svg" width="322.291" height="263.245" viewBox="0 0 322.291 263.245"><defs><style>.a{fill:#113e82;}.b{fill:#f3f3f1;}.c{fill:#eef5ff;}.d{fill:#34d159;}.e{fill:#d5dbe1;}.f{fill:#e1e1e1;}.g{fill:#30c152;}.h{fill:#416aa8;}.i{fill:#fafafa;}</style></defs><g transform="translate(-782.59 -2767.142)"><path class="a" d="M1116.429,3755.278a16.449,16.449,0,1,1,16.456-16.449A16.466,16.466,0,0,1,1116.429,3755.278Zm0-21.935a5.485,5.485,0,1,0,5.485,5.485A5.487,5.487,0,0,0,1116.429,3733.343Z" transform="translate(-317.39 -840.062)"/><path class="a" d="M1457.59,3632.292l7.755-7.762,15.51,15.517-7.755,7.755Z" transform="translate(-420.575 -811.828)"/><path class="a" d="M1520.28,3695.045l7.755-7.755,15.51,15.51-7.755,7.762Z" transform="translate(-438.664 -829.937)"/><path class="a" d="M1454.88,3702.79l15.51-15.51,7.755,7.754-15.51,15.51Z" transform="translate(-419.793 -829.934)"/><path class="a" d="M1517.55,3640.127l15.517-15.517,7.755,7.755-15.517,15.517Z" transform="translate(-437.876 -811.851)"/><path class="b" d="M1323.913,3726.23H1200.19v115.164h159.039V3726.23Z" transform="translate(-346.305 -841.173)"/><path class="c" d="M1451.15,3780.96h-27.42v76.226h71.3v-32.35A43.875,43.875,0,0,0,1451.15,3780.96Z" transform="translate(-410.806 -856.964)"/><path class="b" d="M1273.345,3903.37a19.2,19.2,0,1,0-19.2-19.2A19.19,19.19,0,0,0,1273.345,3903.37Z" transform="translate(-361.875 -881.208)"/><path class="b" d="M1458.345,3903.37a19.2,19.2,0,1,0-19.2-19.2A19.19,19.19,0,0,0,1458.345,3903.37Z" transform="translate(-415.255 -881.208)"/><path class="d" d="M1223.675,3687.231s46.615-20.568,46.615-61.7v-37.017l-46.615-16.456-46.615,16.456v37.017C1177.06,3666.663,1223.675,3687.231,1223.675,3687.231Z" transform="translate(-339.631 -796.688)"/><path class="e" d="M1224.87,3726.23H1200.19v115.164h24.681V3726.23Z" transform="translate(-346.305 -841.173)"/><path class="f" d="M1423.73,3780.96v76.226h24.681V3780.96Z" transform="translate(-410.806 -856.964)"/><path class="e" d="M1278.823,3884.175a19.086,19.086,0,0,1,6.858-14.592,19.2,19.2,0,1,0,0,29.177A19.071,19.071,0,0,1,1278.823,3884.175Z" transform="translate(-361.875 -881.208)"/><path class="e" d="M1463.823,3884.175a19.086,19.086,0,0,1,6.858-14.592,19.2,19.2,0,1,0,0,29.177A19.071,19.071,0,0,1,1463.823,3884.175Z" transform="translate(-415.255 -881.208)"/><path class="g" d="M1201.74,3625.533v-37.017l34.278-12.1-12.344-4.354-46.615,16.456v37.017c0,41.129,46.615,61.7,46.615,61.7a94.658,94.658,0,0,0,12.344-7.058C1222.209,3670.988,1201.74,3652.811,1201.74,3625.533Z" transform="translate(-339.631 -796.688)"/><path class="h" d="M1220.339,3692.118a8.077,8.077,0,0,1-3.323-.7c-2.106-.917-51.517-23.25-51.517-69.218v-37.017a8.219,8.219,0,0,1,5.485-7.755l46.615-16.456a8.115,8.115,0,0,1,5.471,0l46.615,16.456a8.2,8.2,0,0,1,5.485,7.755V3622.2c0,45.968-49.411,68.3-51.517,69.218A8,8,0,0,1,1220.339,3692.118ZM1181.956,3591v31.2c0,29.22,28.494,47.142,38.383,52.492,9.9-5.343,38.39-23.272,38.39-52.492V3591l-38.39-13.553Z" transform="translate(-336.295 -793.35)"/><path class="i" d="M1228.977,3666.994c-.157,0-.313,0-.463-.007a8.281,8.281,0,0,1-5.926-3.017l-15.958-19.594,12.756-10.387,10.259,12.586,21.472-21.095,11.526,11.739-27.91,27.42A8.233,8.233,0,0,1,1228.977,3666.994Z" transform="translate(-348.163 -812.102)"/><path class="a" d="M1243.466,3856.919h-46.615a8.231,8.231,0,0,1-8.232-8.231V3751.51h16.456v88.954h38.39Z" transform="translate(-342.966 -848.467)"/><path class="a" d="M1386.941,3846.29H1296.23v-16.456h82.487v-98.715h-69.759V3714.67h77.983a8.229,8.229,0,0,1,8.224,8.225v115.164A8.23,8.23,0,0,1,1386.941,3846.29Z" transform="translate(-374.017 -837.837)"/><path class="a" d="M1491.69,3862.082H1461.3v-16.456h22.169v-24.133a35.691,35.691,0,0,0-35.651-35.644h-19.2v59.777h10.971v16.456h-19.2a8.23,8.23,0,0,1-8.224-8.231v-76.226a8.229,8.229,0,0,1,8.224-8.224h27.42a52.157,52.157,0,0,1,52.1,52.093v32.357A8.23,8.23,0,0,1,1491.69,3862.082Z" transform="translate(-407.47 -853.629)"/><path class="h" d="M1270.007,3908.259a27.42,27.42,0,1,1,27.42-27.42A27.463,27.463,0,0,1,1270.007,3908.259Zm0-38.391a10.967,10.967,0,1,0,10.964,10.971A10.986,10.986,0,0,0,1270.007,3869.869Z" transform="translate(-358.536 -877.872)"/><path class="h" d="M1455.007,3908.259a27.42,27.42,0,1,1,27.42-27.42A27.463,27.463,0,0,1,1455.007,3908.259Zm0-38.391a10.967,10.967,0,1,0,10.964,10.971A10.986,10.986,0,0,0,1455.007,3869.869Z" transform="translate(-411.917 -877.872)"/></g></svg>