<svg xmlns="http://www.w3.org/2000/svg" width="53.936" height="47.138" viewBox="0 0 53.936 47.138"><defs><style>.a{fill:#34d159;}.b{fill:none;stroke:#6d6d6d;stroke-width:2px;}</style></defs><g transform="translate(-138.5 -2597.177)"><path class="a" d="M236.462,3706.93H222.393v5.834h14.069Z" transform="translate(-64.17 -1070.384)"/><path class="b" d="M196,3690.622V3653h51.936v37.622Z" transform="translate(-56.5 -1054.823)"/><path class="a" d="M239.462,3712.37H216.037v3.9h23.425Z" transform="translate(-62.336 -1071.954)"/><path class="a" d="M244.213,3712.37H232.5v3.9h11.713Z" transform="translate(-67.086 -1071.954)"/><path class="a" d="M241.906,3674.053h-16.5a8.463,8.463,0,1,0,0,3.906h5.436v3.259h3.9v-3.259h1.3v4.561h3.9v-4.561h1.952v-3.906Zm-24.727,6.51a4.553,4.553,0,1,1,4.555-4.553A4.559,4.559,0,0,1,217.179,3680.563Z" transform="translate(-60.224 -1059.021)"/></g></svg>