<svg xmlns="http://www.w3.org/2000/svg" width="47.053" height="46.956" viewBox="0 0 47.053 46.956"><defs><style>.a{fill:#34d159;}.b{fill:#113e82;}</style></defs><g transform="translate(-436.124 -2597.466)"><path class="a" d="M642.514,3709.946a14.478,14.478,0,0,1-2.671-2.8.919.919,0,1,0-1.491,1.074,16.19,16.19,0,0,0,3.015,3.166.916.916,0,0,0,.573.2.934.934,0,0,0,.719-.342A.922.922,0,0,0,642.514,3709.946Z" transform="translate(-184.141 -1070.334)"/><path class="a" d="M675.481,3689.221a.922.922,0,0,0,.9.719,1,1,0,0,0,.2-.021.92.92,0,0,0,.692-1.1,15.852,15.852,0,0,0-1.55-4.091.918.918,0,1,0-1.614.875A14.122,14.122,0,0,1,675.481,3689.221Z" transform="translate(-194.476 -1063.838)"/><path class="a" d="M652.169,3714.993a14.168,14.168,0,0,1-3.739-1,.919.919,0,1,0-.714,1.693,15.817,15.817,0,0,0,4.227,1.131.606.606,0,0,0,.115.007.918.918,0,0,0,.112-1.829Z" transform="translate(-186.731 -1072.4)"/><path class="b" d="M648.682,3668.684a.922.922,0,0,0-.665-1.117,16.254,16.254,0,0,0-3.049-.462,16,16,0,1,0-16.82,16.869.91.91,0,0,0-.027.3,15.9,15.9,0,0,0,.917,4.276.914.914,0,0,0,.864.6.815.815,0,0,0,.314-.057.913.913,0,0,0,.549-1.174,14.129,14.129,0,0,1-.811-3.785.946.946,0,0,0-.029-.171,16.017,16.017,0,0,0,15.037-14.99h0l0-.028a13.319,13.319,0,0,1,2.6.405A.925.925,0,0,0,648.682,3668.684Zm-18.735,13.439a14.181,14.181,0,0,1,13.176-13.176A14.182,14.182,0,0,1,629.948,3682.123Zm-1.841.007h0a14.161,14.161,0,1,1,15.022-15.026h0A16.026,16.026,0,0,0,628.106,3682.13Z" transform="translate(-176.876 -1054.534)"/><path class="a" d="M677.207,3695.439a.914.914,0,0,0-.963.875,14.1,14.1,0,0,1-.715,3.8.922.922,0,0,0,.579,1.167,1.055,1.055,0,0,0,.292.05.919.919,0,0,0,.872-.626,15.97,15.97,0,0,0,.809-4.3A.916.916,0,0,0,677.207,3695.439Z" transform="translate(-194.904 -1067.068)"/><path class="a" d="M673.216,3706.476a.921.921,0,0,0-1.278.242,14.059,14.059,0,0,1-2.6,2.874.92.92,0,0,0,1.183,1.409,16.148,16.148,0,0,0,2.935-3.244A.924.924,0,0,0,673.216,3706.476Z" transform="translate(-193.038 -1070.207)"/><path class="a" d="M663.043,3713.787a14.064,14.064,0,0,1-3.712,1.1.919.919,0,0,0,.134,1.828.882.882,0,0,0,.137-.014,15.979,15.979,0,0,0,4.2-1.23.921.921,0,0,0-.758-1.679Z" transform="translate(-190.018 -1072.339)"/></g></svg>