<svg xmlns="http://www.w3.org/2000/svg" width="143.529" height="28.529" viewBox="0 0 143.529 28.529"><defs><style>.a{fill:#6a6a6a;}</style></defs><g transform="translate(-1106 -5182)"><path class="a" d="M28.17,37.261a11.335,11.335,0,0,1-1.974.666A6.154,6.154,0,0,0,27.82,35.34h0a.323.323,0,0,0-.472-.376h0a11.389,11.389,0,0,1-3.017,1.247.769.769,0,0,1-.189.023.8.8,0,0,1-.528-.2,6.171,6.171,0,0,0-4.083-1.541,6.6,6.6,0,0,0-1.955.3A5.979,5.979,0,0,0,13.546,39.1a6.583,6.583,0,0,0-.146,2.272.221.221,0,0,1-.056.173.229.229,0,0,1-.17.077h-.022A16.182,16.182,0,0,1,2.03,35.68h0a.323.323,0,0,0-.529.041h0a6.178,6.178,0,0,0,1,7.5A5.53,5.53,0,0,1,1.1,42.678h0a.323.323,0,0,0-.479.278h0a6.179,6.179,0,0,0,3.6,5.693l-.132,0a5.553,5.553,0,0,1-1.04-.1h0a.323.323,0,0,0-.368.415h0a6.185,6.185,0,0,0,4.885,4.207A11.388,11.388,0,0,1,1.191,55.11H.477a.473.473,0,0,0-.462.356.489.489,0,0,0,.234.54A16.938,16.938,0,0,0,8.761,58.3a17.17,17.17,0,0,0,7.273-1.543,16.062,16.062,0,0,0,5.322-3.988,17.484,17.484,0,0,0,3.259-5.458,17.241,17.241,0,0,0,1.108-5.973v-.094a1.05,1.05,0,0,1,.393-.817,12.2,12.2,0,0,0,2.454-2.693h0a.323.323,0,0,0-.4-.474Z" transform="translate(1106 5150.803)"/><path class="a" d="M24.248,0H2.412A2.412,2.412,0,0,0,0,2.412V24.248A2.412,2.412,0,0,0,2.412,26.66H24.248a2.412,2.412,0,0,0,2.412-2.412V2.412A2.412,2.412,0,0,0,24.248,0Zm-16,23.02a.7.7,0,0,1-.7.7H4.56a.7.7,0,0,1-.7-.7V10.5a.7.7,0,0,1,.7-.7H7.548a.7.7,0,0,1,.7.7ZM6.054,8.614A2.838,2.838,0,1,1,8.892,5.776,2.838,2.838,0,0,1,6.054,8.614ZM23.862,23.076a.645.645,0,0,1-.645.645H20.011a.645.645,0,0,1-.645-.645V17.2c0-.876.257-3.84-2.29-3.84-1.976,0-2.376,2.029-2.457,2.939v6.775a.645.645,0,0,1-.645.645h-3.1a.645.645,0,0,1-.645-.645V10.44a.645.645,0,0,1,.645-.645h3.1a.645.645,0,0,1,.645.645v1.093c.733-1.1,1.821-1.948,4.139-1.948,5.133,0,5.1,4.8,5.1,7.431v6.061Z" transform="translate(1145 5183.87)"/><g transform="translate(1182 5182)"><path class="a" d="M20.03,0H8.5A8.509,8.509,0,0,0,0,8.5V20.03a8.509,8.509,0,0,0,8.5,8.5H20.03a8.509,8.509,0,0,0,8.5-8.5V8.5A8.509,8.509,0,0,0,20.03,0Zm5.629,20.03a5.629,5.629,0,0,1-5.629,5.629H8.5A5.629,5.629,0,0,1,2.87,20.03V8.5A5.629,5.629,0,0,1,8.5,2.87H20.03A5.629,5.629,0,0,1,25.659,8.5V20.03Z" transform="translate(0 0)"/><path class="a" d="M140.379,133a7.379,7.379,0,1,0,7.379,7.379A7.387,7.387,0,0,0,140.379,133Zm0,11.887a4.509,4.509,0,1,1,4.509-4.509A4.509,4.509,0,0,1,140.379,144.887Z" transform="translate(-126.114 -126.114)"/><ellipse class="a" cx="1.768" cy="1.768" rx="1.768" ry="1.768" transform="translate(19.889 5.173)"/></g><path class="a" d="M24.686,0H3.846A3.844,3.844,0,0,0,0,3.844v20.84a3.844,3.844,0,0,0,3.844,3.844H14.125l.018-10.195H11.494a.625.625,0,0,1-.625-.623l-.013-3.286a.625.625,0,0,1,.625-.627h2.644V10.623c0-3.685,2.251-5.691,5.538-5.691h2.7a.625.625,0,0,1,.625.625V8.328a.625.625,0,0,1-.625.625H20.7c-1.788,0-2.134.849-2.134,2.1V13.8H22.5a.625.625,0,0,1,.621.7l-.389,3.286a.625.625,0,0,1-.621.551H18.588l-.018,10.195h6.116a3.844,3.844,0,0,0,3.844-3.844V3.844A3.844,3.844,0,0,0,24.686,0Z" transform="translate(1220.998 5182)"/></g></svg>