<svg xmlns="http://www.w3.org/2000/svg" xmlns:xlink="http://www.w3.org/1999/xlink" width="75" height="75" viewBox="0 0 75 75"><defs><style>.a{fill:#113e82;}.b{clip-path:url(#a);}.c{fill:#34d159;}</style><clipPath id="a"><rect class="a" width="75" height="75" transform="translate(0.044 -0.467)"/></clipPath></defs><g class="b" transform="translate(-0.044 0.467)"><path class="a" d="M1088.888,2353.014a16.26,16.26,0,0,0-13.013-4.693v-16.327a6.57,6.57,0,0,0-6.563-6.563h-43.847a6.573,6.573,0,0,0-6.464,6.563v43.754a6.569,6.569,0,0,0,6.564,6.557c45.369-.149,44,.363,46.087-.434l4.167,4.174a2.188,2.188,0,0,0,3.093,0l9.977-9.984A16.284,16.284,0,0,0,1088.888,2353.014Zm-45.682-23.2h8.754v10.937h-8.754Zm-17.643,48.121a2.19,2.19,0,0,1-2.19-2.183v-43.754a2.19,2.19,0,0,1,2.19-2.183h13.269v13.12a2.191,2.191,0,0,0,2.19,2.19h13.12a2.191,2.191,0,0,0,2.19-2.19v-13.12h12.978a2.188,2.188,0,0,1,2.183,2.183v17.344a16.291,16.291,0,0,0-5.653,26.723l1.87,1.87Zm60.231-4.964-8.427,8.434-8.434-8.434a11.922,11.922,0,1,1,16.86,0Z" transform="translate(-1019 -2318.724)"/><path class="a" d="M1098.349,2370.69a6.972,6.972,0,1,0,6.969,6.976A6.977,6.977,0,0,0,1098.349,2370.69Zm0,9.572a2.6,2.6,0,1,1,2.6-2.6A2.6,2.6,0,0,1,1098.349,2380.261Z" transform="translate(-1039.91 -2331.799)"/><path class="c" d="M1046.824,2374.65h-13.141a2.187,2.187,0,0,0,0,4.374h13.141a2.187,2.187,0,1,0,0-4.374Z" transform="translate(-1022.611 -2332.943)"/><path class="c" d="M1046.81,2386.96h-13.127a2.187,2.187,0,0,0,0,4.374h13.127a2.187,2.187,0,1,0,0-4.374Z" transform="translate(-1022.611 -2336.5)"/></g></svg>