<svg xmlns="http://www.w3.org/2000/svg" width="97.72" height="28.213" viewBox="0 0 97.72 28.213"><defs><style>.a,.b{fill:#113e82;}.b{fill-rule:evenodd;}</style></defs><g transform="translate(-1115.172 -4113.667)"><path class="a" d="M1658.854,5775.6a4.7,4.7,0,0,0-3.482,1.287,4.586,4.586,0,0,0-1.287,3.434v1.17H1652v2.794h2.085v8.657h3.214v-8.657h2.663v-2.794H1657.3v-1.259a1.787,1.787,0,0,1,1.927-1.817c.248,0,.489.021.757.042v-2.787A7.921,7.921,0,0,0,1658.854,5775.6Z" transform="translate(-508.613 -1656.705)"/><path class="a" d="M1668.3,5775.8H1665V5793h3.3Z" transform="translate(-512.667 -1656.767)"/><path class="a" d="M1674.519,5776a1.937,1.937,0,1,0,1.363,3.31,1.9,1.9,0,0,0,.571-1.37A1.928,1.928,0,0,0,1674.519,5776Zm1.6,5.671h-3.214v11.4h3.214Z" transform="translate(-515.036 -1656.828)"/><path class="a" d="M1685.719,5783.8a5.326,5.326,0,0,0-3.991,1.638,6.885,6.885,0,0,0,0,8.65,5.3,5.3,0,0,0,3.991,1.645,4.08,4.08,0,0,0,3.241-1.225v6.634h3.214v-17.121h-3.035v1.2A3.986,3.986,0,0,0,1685.719,5783.8Zm.537,2.773a2.647,2.647,0,0,1,2.7,2.925v.537a2.646,2.646,0,0,1-2.7,2.925c-1.665,0-2.773-1.177-2.773-3.193S1684.591,5786.573,1686.256,5786.573Z" transform="translate(-517.406 -1659.261)"/><path class="a" d="M1707.241,5783.8a3.943,3.943,0,0,0-3.386,1.418v-1.2H1700.8v17.121h3.234v-6.634a4.06,4.06,0,0,0,3.207,1.225,5.217,5.217,0,0,0,3.985-1.645,6.815,6.815,0,0,0,0-8.65A5.238,5.238,0,0,0,1707.241,5783.8Zm-.509,2.773c1.658,0,2.766,1.177,2.766,3.193s-1.108,3.193-2.766,3.193a2.641,2.641,0,0,1-2.7-2.925v-.537A2.642,2.642,0,0,1,1706.732,5786.573Z" transform="translate(-523.83 -1659.261)"/><path class="a" d="M1724.851,5783.8a4.805,4.805,0,0,0-3.427,1.267,3.806,3.806,0,0,0-1.314,2.849l3.207.138a1.457,1.457,0,0,1,1.576-1.514c.991,0,1.473.6,1.473,1.782v.44l-2.016.11c-3.035.138-4.549,1.293-4.549,3.5s1.424,3.407,3.778,3.407a3.843,3.843,0,0,0,2.9-1.177v.929h3.1v-7.1C1729.572,5785.4,1727.927,5783.8,1724.851,5783.8Zm1.514,7.591a1.834,1.834,0,0,1-2.044,1.872c-.874,0-1.314-.358-1.314-1.046,0-.757.551-1.163,1.645-1.2l1.714-.109Z" transform="translate(-529.755 -1659.261)"/><path class="a" d="M1747.387,5784.2H1743.8l-2.608,6.806-2.636-6.806H1735l4.466,10.412-2.918,6.654h3.517Z" transform="translate(-534.495 -1659.386)"/><path class="b" d="M1611,5770.237a2.07,2.07,0,0,1,2.615-2.167l15.69,3.661c1.445.331,2.615,1.425,2.615,2.443v15.456c0,1.012-1.17,2.113-2.615,2.443l-15.69,3.661a2.07,2.07,0,0,1-2.615-2.168Zm4.446,5.664a1.908,1.908,0,0,1,2.271-1.913l6.827.977a2.479,2.479,0,0,1,2.271,2.113c0,.984-1.018,1.72-2.271,1.638l-6.827-.427A2.444,2.444,0,0,1,1615.446,5775.9Zm-.124,6a2.228,2.228,0,0,1,2.354-2.223l7.061.282a1.977,1.977,0,1,1,0,3.882l-7.061.282A2.228,2.228,0,0,1,1615.322,5781.9Zm2.739,8.368a3.013,3.013,0,0,0,2.615-2.746,2.305,2.305,0,0,0-2.615-2.175,2.8,2.8,0,0,0-2.615,2.739A2.177,2.177,0,0,0,1618.061,5790.27Z" transform="translate(-495.828 -1654.336)"/></g></svg>