<svg xmlns="http://www.w3.org/2000/svg" width="171.674" height="34.145" viewBox="0 0 171.674 34.145"><defs><style>.a{fill:#113e82;}</style></defs><g transform="translate(-150.504 -4110.913)"><path class="a" d="M343.439,5795.815a.713.713,0,0,1,.2-.5.7.7,0,0,1,.491-.22.486.486,0,0,1,.489.53.7.7,0,0,1-.689.709.4.4,0,0,1-.2-.035.427.427,0,0,1-.166-.117.432.432,0,0,1-.105-.172A.472.472,0,0,1,343.439,5795.815Zm2.285,0a.713.713,0,0,1,.2-.5.7.7,0,0,1,.491-.22.486.486,0,0,1,.49.53.7.7,0,0,1-.688.709.406.406,0,0,1-.2-.035.44.44,0,0,1-.167-.117.432.432,0,0,1-.105-.172A.472.472,0,0,1,345.724,5795.815Zm2.284,0a.713.713,0,0,1,.2-.5.7.7,0,0,1,.491-.22.487.487,0,0,1,.491.53.7.7,0,0,1-.689.709.406.406,0,0,1-.2-.035.5.5,0,0,1-.272-.289A.472.472,0,0,1,348.008,5795.815Zm1.519,1.981.283-.653a.675.675,0,0,0,.306.075,1.184,1.184,0,0,0,.926-.764l.125-.248-.714-4.088h.9l.258,2.085c.047.372.085.846.1,1.238h.034c.182-.385.39-.846.579-1.238l1.025-2.085h.88l-2.323,4.342c-.506.9-1.02,1.48-1.842,1.48A1.448,1.448,0,0,1,349.527,5797.8Zm4.662-3.138a2.489,2.489,0,0,1,2.271-2.643A1.509,1.509,0,0,1,358,5793.7a2.485,2.485,0,0,1-2.271,2.643A1.509,1.509,0,0,1,354.189,5794.659Zm2.894-.936c0-.62-.252-.977-.726-.977-.654,0-1.262.833-1.262,1.886,0,.619.251.977.725.977.66,0,1.268-.826,1.268-1.886Zm4.75,2.519H361.1l.039-.592H361.1a2.193,2.193,0,0,1-1.383.694c-.694,0-.977-.385-.977-1.046a2.713,2.713,0,0,1,.067-.578l.52-2.6h.9l-.5,2.491a2.195,2.195,0,0,0-.065.434.461.461,0,0,0,.514.53c.277,0,.6-.2,1.017-.64l.558-2.815h.9Zm2.07-4.123h.736l-.074.8h.034a1.661,1.661,0,0,1,1.274-.895.854.854,0,0,1,.413.076l-.3.792a.815.815,0,0,0-.383-.069c-.387,0-.782.3-1.122.93l-.487,2.5h-.9Zm4.76,4.521-.232,1.232h-.9l1.158-5.76h.736l-.02.509h.023a2.156,2.156,0,0,1,1.341-.605c.725,0,1.175.537,1.175,1.5a2.623,2.623,0,0,1-2.214,2.822,1.018,1.018,0,0,1-.527-.145,1.1,1.1,0,0,1-.383-.393H368.8Zm.676-3.283-.347,1.755a.771.771,0,0,0,.685.488c.694,0,1.336-.9,1.336-1.961,0-.6-.231-.881-.614-.881A1.43,1.43,0,0,0,369.339,5793.358Zm5.467-1.342c.958,0,1.313.667,1.313,1.521a2.524,2.524,0,0,1-.18.874h-2.51c-.087.867.394,1.239,1.021,1.239a1.562,1.562,0,0,0,.841-.324l.329.578a2.451,2.451,0,0,1-1.408.44,1.585,1.585,0,0,1-1.652-1.748A2.461,2.461,0,0,1,374.805,5792.017Zm.524,1.823a1.679,1.679,0,0,0,.041-.364c0-.4-.171-.757-.672-.757a1.353,1.353,0,0,0-1.189,1.121Zm3.828-.172a.962.962,0,0,0,.036-.275c0-.488-.231-.667-.647-.667a2.209,2.209,0,0,0-1.079.351l-.281-.64a3.571,3.571,0,0,1,1.548-.42,1.176,1.176,0,0,1,1.35,1.294,2.816,2.816,0,0,1-.067.578l-.463,2.354h-.73l.011-.447h-.026a1.978,1.978,0,0,1-1.253.55.983.983,0,0,1-1.032-1.018C376.519,5794.136,377.641,5793.709,379.157,5793.668Zm-1.758,1.473a.486.486,0,0,0,.555.5,1.44,1.44,0,0,0,.9-.447l.2-.95C377.973,5794.267,377.4,5794.6,377.4,5795.141Zm3.441-.481a2.522,2.522,0,0,1,2.364-2.643,1.3,1.3,0,0,1,.6.131,1.334,1.334,0,0,1,.487.371l-.511.544a.776.776,0,0,0-.634-.316c-.738,0-1.389.86-1.389,1.886,0,.619.276.977.833.977a1.258,1.258,0,0,0,.779-.317l.387.571a2.151,2.151,0,0,1-1.354.475A1.517,1.517,0,0,1,380.84,5794.659Zm5.85-2.643c.957,0,1.314.667,1.314,1.521a2.543,2.543,0,0,1-.182.874h-2.51c-.087.867.394,1.239,1.021,1.239a1.562,1.562,0,0,0,.84-.324l.329.578a2.449,2.449,0,0,1-1.408.44,1.584,1.584,0,0,1-1.652-1.748A2.46,2.46,0,0,1,386.69,5792.017Zm.524,1.823a1.724,1.724,0,0,0,.039-.364c0-.4-.171-.757-.671-.757a1.353,1.353,0,0,0-1.189,1.121Zm.845,3.365a1.4,1.4,0,0,0,1.018-.963l.094-.736.232.619a.569.569,0,0,1-.326.131.5.5,0,0,1-.555-.5.658.658,0,0,1,.048-.255.705.705,0,0,1,.142-.213.685.685,0,0,1,.215-.145.636.636,0,0,1,.253-.041c.372,0,.579.262.579.682a1.966,1.966,0,0,1-1.6,1.934Zm4.49-2.546a2.489,2.489,0,0,1,2.272-2.643,1.509,1.509,0,0,1,1.537,1.679,2.485,2.485,0,0,1-2.27,2.643A1.512,1.512,0,0,1,392.55,5794.659Zm2.894-.936c0-.62-.253-.977-.726-.977-.654,0-1.263.833-1.263,1.886,0,.619.253.977.726.977.665,0,1.272-.826,1.272-1.886Zm4.755,2.519h-.736l.041-.592h-.034a2.193,2.193,0,0,1-1.389.694c-.694,0-.978-.385-.978-1.046a2.626,2.626,0,0,1,.068-.578l.52-2.6h.9l-.5,2.491a2.124,2.124,0,0,0-.066.434.463.463,0,0,0,.513.53c.279,0,.6-.2,1.018-.64l.555-2.815h.9Zm2.076-4.123h.735l-.074.8h.034a1.663,1.663,0,0,1,1.274-.895.853.853,0,0,1,.413.076l-.3.792a.815.815,0,0,0-.383-.069c-.386,0-.782.3-1.122.93l-.487,2.5h-.9Zm3.589,4.962c0-.509.463-.846.926-1.053V5796a.7.7,0,0,1-.25-.55.986.986,0,0,1,.533-.785v-.034a1.139,1.139,0,0,1-.322-.413,1.172,1.172,0,0,1-.114-.51,1.69,1.69,0,0,1,1.737-1.692,1.212,1.212,0,0,1,.538.1h1.468l-.132.681h-.715a.965.965,0,0,1,.141.5,1.63,1.63,0,0,1-1.753,1.631,1.349,1.349,0,0,1-.407-.062.576.576,0,0,0-.16.172.472.472,0,0,0-.072.213c0,.248.136.344.733.413,1.135.138,1.484.419,1.484.957,0,.957-1.042,1.438-2.072,1.438C406.778,5798.065,405.864,5797.866,405.864,5797.082Zm2.753-.234c0-.31-.336-.427-.879-.5a4.875,4.875,0,0,1-.494-.089c-.271.138-.6.371-.6.661,0,.385.348.564.88.564.628-.007,1.094-.275,1.094-.64Zm.286-3.53c0-.413-.212-.668-.554-.668a.99.99,0,0,0-.88,1.046c0,.413.212.668.555.668a.989.989,0,0,0,.879-1.046Zm1.491,1.342a2.489,2.489,0,0,1,2.271-2.643,1.509,1.509,0,0,1,1.538,1.679,2.485,2.485,0,0,1-2.271,2.643A1.509,1.509,0,0,1,410.394,5794.659Zm2.894-.936c0-.62-.252-.977-.726-.977-.654,0-1.262.833-1.262,1.886,0,.619.251.977.725.977.66,0,1.268-.826,1.268-1.886Zm4-.055a.963.963,0,0,0,.036-.275c0-.488-.231-.667-.648-.667a2.21,2.21,0,0,0-1.078.351l-.281-.64a3.574,3.574,0,0,1,1.548-.42,1.176,1.176,0,0,1,1.35,1.294,2.865,2.865,0,0,1-.067.578l-.463,2.354h-.731l.012-.447h-.027a1.978,1.978,0,0,1-1.253.55.983.983,0,0,1-1.032-1.018C414.651,5794.136,415.772,5793.709,417.288,5793.668Zm-1.758,1.473a.486.486,0,0,0,.555.5,1.44,1.44,0,0,0,.9-.447l.2-.95C416.1,5794.267,415.53,5794.6,415.53,5795.141Zm4.538-4.831h.9l-1.189,5.933h-.9Zm1.72-14.472.956-3.338H410.45l-1.981,3.338Z" transform="translate(-100.567 -1655.738)"/><path class="a" d="M448.992,5782.794l1.041-3.634H437.739l-2.579,9h12.3l.994-3.468h-6.917l.542-1.9Z" transform="translate(-129.168 -1657.815)"/><path class="a" d="M429.444,5775.838l1.976-3.338H421.373a4.362,4.362,0,0,0-4.179,3.152l-.054.186Z" transform="translate(-123.549 -1655.738)"/><path class="a" d="M406.783,5779.157l-1.339,4.687a3.391,3.391,0,0,0,3.256,4.315h7.808l.993-3.476h-7.44l1.583-5.533Zm-13.975,0-7.744,9h5.908l4.615-5.368h2.965l1.258,5.368h5.261l-2.113-9Z" transform="translate(-113.547 -1657.812)"/><path class="a" d="M406.661,5775.838l-.782-3.338h-5.134l-2.871,3.338Z" transform="translate(-117.541 -1655.738)"/><path class="a" d="M381.678,5782.794l1.042-3.634h-12.3l-1.042,3.634-1.537,5.368h12.3l1-3.468h-6.918l.542-1.9Z" transform="translate(-108.178 -1657.815)"/><path class="a" d="M383.943,5775.838l.956-3.338H372.6l-1.978,3.338Z" transform="translate(-109.045 -1655.738)"/><path class="a" d="M346.275,5779.16l-2.577,9h4.631l1.537-5.368h6.3a5.3,5.3,0,0,0,5.029-3.634Z" transform="translate(-100.648 -1657.815)"/><path class="a" d="M349.367,5775.838a2.811,2.811,0,0,0-.59-2.319,2.813,2.813,0,0,0-2.162-1.019h-11.2l-1.985,3.338Zm-28.717,0a2.8,2.8,0,0,0-1.557-3.069,2.762,2.762,0,0,0-1.2-.269H306.635l-1.979,3.338Z" transform="translate(-88.473 -1655.738)"/><path class="a" d="M319.43,5779.16H304.457l-.584,2.044-1.993,6.958h4.631l1.536-5.368H313.3l-1.536,5.368h4.631l1.032-3.606a2.47,2.47,0,0,0-.562-2.368A5.3,5.3,0,0,0,319.43,5779.16Z" transform="translate(-87.608 -1657.815)"/><path class="a" d="M293.655,5775.844l.95-3.324h-4.921l-.951,3.324Zm-9.505,0-.751-3.324h-5.134l-2.925,3.324Z" transform="translate(-79.332 -1655.744)"/><path class="a" d="M286.544,5779.16l-2.2,7.687-1.742-7.687H272.411l-2.947,3.345h8.749l1.466,5.657h9.208l2.579-9Z" transform="translate(-77.5 -1657.815)"/><path class="a" d="M244.4,5778.328a6.1,6.1,0,0,0-.107-.792c-.038-.179-.074-.289-.116-.5a13.966,13.966,0,0,0-4.331-7.618,2.528,2.528,0,0,0-.208-.165c-.492-.434-1-.854-1.526-1.252a19.263,19.263,0,0,0-8.35-3.75,17.645,17.645,0,0,0-5.48-.076,21.044,21.044,0,0,0-4.925,1.349,14.226,14.226,0,0,0-5.94,4.328l-.122.151a.56.56,0,0,1-.041.048,9.494,9.494,0,0,0-.6.812.211.211,0,0,1-.032.021c-.463.675-.94,1.459-.991,1.549a17.747,17.747,0,0,0-2.316,6.881,14.585,14.585,0,0,0,.09,4.026,14.424,14.424,0,0,0,1.666,4.748c.092.166.182.331.285.482a1.941,1.941,0,0,0,.327.461,15.382,15.382,0,0,1-1.762-6.771l.014-.007v-.186c0-.117-.008-.24-.012-.357a14.618,14.618,0,0,1,.587-3.647,16.107,16.107,0,0,1,1.853-4.04s.056-.089.161-.248a18.286,18.286,0,0,1,1.4-1.851.306.306,0,0,1,.043-.048c.231-.282.492-.564.765-.84,0-.006.01-.014.017-.014.217-.227.447-.44.683-.654h.006a15.407,15.407,0,0,1,2.578-1.947,17.031,17.031,0,0,1,6.537-2.154,16.528,16.528,0,0,1,5.146.145,16.225,16.225,0,0,1,5.7,2.243,19.958,19.958,0,0,1,4.317,3.709.469.469,0,0,0,.08.076,16.717,16.717,0,0,1,2.965,7.205c.041.667.063,1.342.053,2.023l-.017.592a19.36,19.36,0,0,1-.736,4.659,14.144,14.144,0,0,1-5.305,7.59,20.968,20.968,0,0,1-6.606,3.125c-.624.179-1.257.331-1.9.5a.8.8,0,0,0,.181,0c.473-.083.947-.158,1.418-.262a21.8,21.8,0,0,0,5.947-2.154,16.12,16.12,0,0,0,8.648-13.88A22.22,22.22,0,0,0,244.4,5778.328Z" transform="translate(-58.713 -1653.088)"/><path class="a" d="M252.958,5771.5a.32.32,0,0,0-.4-.323c-.385.055-.771.117-1.158.172a29.512,29.512,0,0,0-4.747,1.087,23.009,23.009,0,0,0-2.389.895c-.046.021-.116.09-.171.076-.19.082-.363.165-.48.22l-.041.021c-.359.165-.707.351-1.065.523a11.686,11.686,0,0,0-4.068,3.248,30.556,30.556,0,0,0-3.171,4.865c-.3.537-.579,1.087-.869,1.631-.378.813-1.352.42-1.773.207a2.008,2.008,0,0,1-.2-.117,2.722,2.722,0,0,0-.271-.172,13.5,13.5,0,0,0-4.515-1.542,13.22,13.22,0,0,0-5.49.4c-.958.269-1.908.564-2.846.9-.2.069-.833.31-2.151.826l-.162.068-.063.028-.275.117a.168.168,0,0,1-.127.055c-.109.048-.219.1-.325.151-.315.151-.626.31-.926.468-.733.4-1.237.729-1.264.75a8.892,8.892,0,0,0-1.505,1.239c.6-.083,1.166-.172,1.736-.248a40.984,40.984,0,0,1,6.937-.468,13.461,13.461,0,0,1,3.839.585,5.316,5.316,0,0,1,2.282,1.363c.116.117.1.172-.059.213-.356.09-.707.2-1.064.289-1.092.275-2.2.475-3.28.8a4.243,4.243,0,0,0-1.328.578c-.478.358-.493.44-.1.909a3.339,3.339,0,0,0,1.489.881,21.478,21.478,0,0,0,4.216.867c.132.014.146-.021.1-.13a2.358,2.358,0,0,1-.151-.757.934.934,0,0,1,.675-.984,4.969,4.969,0,0,1,1.14-.227c.83-.09,1.666-.076,2.5-.179a9.813,9.813,0,0,0,3.177-.874,10.429,10.429,0,0,0,2.911-2.264c.755-.792,1.5-1.583,2.247-2.381.116-.124.205-.165.365-.062.192.117.407.2.61.31.1.048.147.063.148-.082a5.091,5.091,0,0,0-.073-1.054,1.633,1.633,0,0,0-.623-1.121,1.227,1.227,0,0,0-.544-.241,1.245,1.245,0,0,0-.595.035c.022-.076.034-.13.052-.179a14.916,14.916,0,0,1,1.08-2.408,7.322,7.322,0,0,1,1.744-2.106.484.484,0,0,1,.158-.1.556.556,0,0,1,.182-.021.868.868,0,0,0,.475-.089.9.9,0,0,0,.352-.33c.1-.158.142-.331.232-.5a1.264,1.264,0,0,0,1.213.605.981.981,0,0,0,1.022-.833c.473.3.687.269.9-.138.093-.172.181-.269.388-.241a.419.419,0,0,0,.268-.1.939.939,0,0,0,.336-.516c.034-.11.065-.124.169-.069a.575.575,0,0,0,.616,0,1.123,1.123,0,0,0,.387-.427.13.13,0,0,1,.032-.055.157.157,0,0,1,.051-.041.19.19,0,0,1,.062-.014.2.2,0,0,1,.064.007.555.555,0,0,0,.764-.482.235.235,0,0,1,.059-.124.265.265,0,0,1,.118-.076.786.786,0,0,0,.579-.86,2.428,2.428,0,0,0-.025-.29c-.007-.055-.016-.1.057-.1a.418.418,0,0,0,.183-.021.254.254,0,0,1,.014-.056.22.22,0,0,0,.028.035.31.31,0,0,0,.112-.1.361.361,0,0,0,.058-.138.1.1,0,0,0,0-.021l.007-.042a1.084,1.084,0,0,0-.072-.5c.331.055.623.1.919.138a.894.894,0,0,0,.4-.027.792.792,0,0,0,.345-.214,2.274,2.274,0,0,0,.5-.708A.793.793,0,0,0,252.958,5771.5Z" transform="translate(-59.739 -1655.324)"/></g></svg>