<svg xmlns="http://www.w3.org/2000/svg" width="51.937" height="49.693" viewBox="0 0 51.937 49.693"><defs><style>.a{fill:#113e82;}.b{fill:#34d159;}</style></defs><g transform="translate(-1008.848 -2550)"><path class="a" d="M1418,3655.193a7.2,7.2,0,0,1,7.193-7.193h32.692a7.2,7.2,0,0,1,7.193,7.193v13.176a12.769,12.769,0,0,1-3.927-2.17v-11.006a3.267,3.267,0,0,0-3.266-3.273h-32.692a3.273,3.273,0,0,0-3.273,3.273v32.691a3.273,3.273,0,0,0,3.273,3.272h18.576a17.269,17.269,0,0,0,1.345,1.978,17.457,17.457,0,0,0,1.757,1.942h-21.678a7.2,7.2,0,0,1-7.193-7.193Z" transform="translate(-409.152 -1098)"/><path class="b" d="M1479.084,3678.959a14.932,14.932,0,0,1-10.843-4.845,1.306,1.306,0,0,0-1.85,0,14.955,14.955,0,0,1-10.843,4.845,1.31,1.31,0,0,0-1.309,1.309v7.854l.014.754c.249,8,4.532,13.468,12.65,16.171a1.261,1.261,0,0,0,.825,0c8.374-2.789,12.664-8.509,12.664-16.926v-7.854l-.021-.235A1.313,1.313,0,0,0,1479.084,3678.959Zm-17.267,4.966.178-.156.2-.114a1.324,1.324,0,0,1,1.288.114l.185.156,3.65,3.65,3.65-3.65.185-.156a1.318,1.318,0,0,1,1.487,0l.178.156.156.178a1.319,1.319,0,0,1,0,1.487l-.156.185-3.65,3.65,3.65,3.65.156.185a1.319,1.319,0,0,1,0,1.487l-.156.178-.178.149a1.3,1.3,0,0,1-1.487,0l-.185-.149-3.65-3.65-3.65,3.65-.185.149a1.3,1.3,0,0,1-1.487,0l-.178-.149-.157-.178a1.319,1.319,0,0,1,0-1.487l.157-.185,3.65-3.65-3.65-3.65-.157-.185a1.319,1.319,0,0,1,0-1.487Z" transform="translate(-419.609 -1105.424)"/></g></svg>