<svg xmlns="http://www.w3.org/2000/svg" width="94.562" height="34.044" viewBox="0 0 94.562 34.044"><defs><style>.a{fill:#113e82;}</style></defs><g transform="translate(-755.946 -4110.913)"><path class="a" d="M1164.307,5780.616v-10.921a17.9,17.9,0,0,0-.11-2.188,2.306,2.306,0,0,0-2.388-2.257c-.7-.062-1.4-.138-2.113-.213v-.5h25.167v.516c-.447.027-.895.034-1.342.075a7.083,7.083,0,0,0-1,.172.53.53,0,0,0-.344.207.553.553,0,0,0-.11.385,2.95,2.95,0,0,0,.2,1.019c.337.695.736,1.355,1.129,2.023.757,1.28,1.528,2.56,2.312,3.867a1.87,1.87,0,0,0,.172-.158c1.232-1.624,2.477-3.228,3.682-4.872a4.066,4.066,0,0,0,.585-1.363c.172-.723-.193-1.156-.929-1.225-.647-.062-1.294-.11-1.968-.165v-.481h8.988v.516c-.317.021-.633.041-.95.055a4.979,4.979,0,0,0-3.751,1.7q-1.889,2.22-3.757,4.459c-.516.613-1,1.253-1.521,1.865a.355.355,0,0,0-.034.489c2.1,3.372,4.177,6.744,6.276,10.116.833,1.328,1.707,2.636,2.56,3.957a3.84,3.84,0,0,0,3.283,1.8c.179.014.351.041.544.062v.516h-16.151v-.516c.42-.021.833-.021,1.253-.062a3.752,3.752,0,0,0,.908-.193.805.805,0,0,0,.557-1.025,7.191,7.191,0,0,0-.668-1.631c-1.321-2.229-2.691-4.438-4.033-6.655-.021-.034-.048-.062-.089-.117-.406.522-.812,1.025-1.2,1.541-1.376,1.831-2.753,3.647-4.1,5.492a3.721,3.721,0,0,0-.537,1.1.975.975,0,0,0,.95,1.37l2.175.186v.5h-9.6v-.5c.454-.021.9-.042,1.349-.055a5.4,5.4,0,0,0,4.095-2.2q3.169-3.84,6.359-7.66a.4.4,0,0,0,.034-.564c-2.305-3.682-4.583-7.371-6.9-11.031a11.61,11.61,0,0,0-1.617-2.044,3.806,3.806,0,0,0-3.117-.874c-.385.035-.771.089-1.163.138a2.321,2.321,0,0,0-2.216,2.12,16.464,16.464,0,0,0-.138,2.4q-.01,9.94,0,19.888v.406h-3.991a.457.457,0,0,1-.255-.048.468.468,0,0,1-.2-.165q-7.278-9.311-14.562-18.622c-.592-.757-1.19-1.514-1.782-2.271a2.715,2.715,0,0,0-.234-.268c-.014.089-.027.179-.034.261q0,8.248.014,16.489a10.143,10.143,0,0,0,.172,2.092,2.072,2.072,0,0,0,2.072,1.762c.385.035.771.089,1.163.124s.778.069,1.191.1v.522h-10.082v-.488c.592-.069,1.2-.117,1.8-.2.441-.055.874-.131,1.308-.207a1.631,1.631,0,0,0,.736-.33,1.583,1.583,0,0,0,.461-.661,5.674,5.674,0,0,0,.358-1.39,15.707,15.707,0,0,0,.069-1.886q.01-7.752,0-15.5c0-.585-.034-1.163-.055-1.748a.366.366,0,0,0-.048-.192,4.757,4.757,0,0,0-3.021-2.312,12.987,12.987,0,0,0-1.8-.1h-.172v-.544h13.11a.492.492,0,0,1,.261.048.541.541,0,0,1,.213.179q6.121,7.835,12.256,15.648c.076.1.158.179.241.269Z" transform="translate(-348.38 -1653.249)"/><path class="a" d="M1114.35,5781.94c.619-.977,1.287-2,1.927-3.035,1.5-2.408,4.735-2.209,6.338-1.073a5.379,5.379,0,0,1,2.354,4.108,11.3,11.3,0,0,1-2.326,7.708,11.106,11.106,0,0,1-4.267,3.833,8.291,8.291,0,0,1-5.031.764c-.124-.027-.248-.062-.372-.1a2.394,2.394,0,0,1-1.968-2.553.55.55,0,0,0-.055-.275.392.392,0,0,1-.027.083q-1.6,3.882-3.207,7.763a9.34,9.34,0,0,0-.406,1.287c-.124.53-.021.991.709,1.032s1.48.083,2.243.124v.5H1096.87v-.509c.5-.062,1.012-.131,1.528-.186a2.244,2.244,0,0,0,1.9-1.183c.6-1.129,1.163-2.258,1.665-3.428q3.365-7.979,6.682-15.972a15.81,15.81,0,0,0,.578-1.755.73.73,0,0,0-.206-.826.673.673,0,0,0-.819.09,9.512,9.512,0,0,0-1.369,1.2,18.451,18.451,0,0,0-2.815,4.211.641.641,0,0,1-.076.118l-.475-.172c.234-.434.44-.86.675-1.273a17.147,17.147,0,0,1,2.766-3.84,4.934,4.934,0,0,1,4.349-1.507,3.239,3.239,0,0,1,2.938,2.917C1114.288,5780.653,1114.3,5781.341,1114.35,5781.94Zm-2.8,9.841c0,.117-.007.241,0,.358a1.041,1.041,0,0,0,1.672.874,2.64,2.64,0,0,0,.792-.839,48.2,48.2,0,0,0,4.9-11.045,5.51,5.51,0,0,0,.344-2.478c-.11-.715-.585-1-1.225-.66a3.836,3.836,0,0,0-1.046.825,12,12,0,0,0-1.954,2.98,66.391,66.391,0,0,0-2.9,7.24A9.641,9.641,0,0,0,1111.549,5791.781Z" transform="translate(-335.508 -1657.147)"/><path class="a" d="M1099.777,5784.212l.42.241a28.729,28.729,0,0,1-3.159,4.466,4.52,4.52,0,0,1-2.9,1.308,6.287,6.287,0,0,1-2.181-.069,3.431,3.431,0,0,1-2.615-3.055,6.534,6.534,0,0,1,.716-3.7c.963-2,1.961-3.985,2.932-5.98.344-.7.654-1.417.97-2.126a2.078,2.078,0,0,0,.193-.661c.007-.192-.034-.475-.158-.558a.7.7,0,0,0-.606,0,3.977,3.977,0,0,0-.895.647,15.289,15.289,0,0,0-2.842,3.75c-.048.1-.1.186-.165.3-.083-.028-.158-.048-.241-.076s-.145-.055-.248-.1a16.626,16.626,0,0,1,3.255-4.412,4.889,4.889,0,0,1,1.824-1.025,4.958,4.958,0,0,1,2.085-.172,3.568,3.568,0,0,1,3.234,3.613,6.1,6.1,0,0,1-.392,2.5,46.5,46.5,0,0,1-2.994,6.18c-.454.819-.853,1.672-1.266,2.519a2.667,2.667,0,0,0-.2.654.624.624,0,0,0,.8.771,2.49,2.49,0,0,0,.977-.5,10.531,10.531,0,0,0,1.4-1.479c.612-.812,1.156-1.686,1.727-2.525C1099.563,5784.569,1099.66,5784.4,1099.777,5784.212Zm-.3-20.212a3.166,3.166,0,0,1,3.358,3.228,3.285,3.285,0,0,1-3.365,3.269,3.249,3.249,0,1,1,.007-6.5Z" transform="translate(-333.054 -1653.087)"/></g></svg>