<svg xmlns="http://www.w3.org/2000/svg" xmlns:xlink="http://www.w3.org/1999/xlink" width="69.689" height="66.861" viewBox="0 0 69.689 66.861"><defs><style>.a{fill:#fff;}.b{fill:#113e82;}.c{clip-path:url(#a);}.d{fill:#34d159;}</style><clipPath id="a"><path class="a" d="M462.4,1585.484l9.663,26.484,6.084,2.863,26.842-9.305-7.516-28.274-3.579-3.937Z" transform="translate(567 57)"/></clipPath></defs><g transform="translate(-1004.422 -1630.316)"><path class="b" d="M1447.591,2349.26a17.124,17.124,0,0,1,5.988,3.221l19.541-7.026a2.116,2.116,0,0,0,1.223-2.631l-7.31-23.659a1.9,1.9,0,0,0-2.439-1.323l-7.4,2.667,4,12.978-7.339,2.624-4.011-12.978-7.452,2.674a2.13,2.13,0,0,0-1.216,2.638Zm34,6.357-1.237-3.968a1.9,1.9,0,0,0-2.439-1.323l-25.835,9.3a11.29,11.29,0,0,0-8.889-4.836l-12.025-38.933a3.923,3.923,0,0,0-3.676-2.859h-13.554a2.02,2.02,0,0,0-1.934,2.091v4.174a2.02,2.02,0,0,0,1.934,2.091h10.759l11.15,36.124a12.947,12.947,0,0,0-4.352,11.819c.74,5.141,4.587,9.444,9.351,10.34,7.282,1.4,13.589-4.544,13.717-12.089l25.806-9.294A2.134,2.134,0,0,0,1481.589,2355.617Zm-38.62,17.963a6.283,6.283,0,1,1,5.81-6.265A6.048,6.048,0,0,1,1442.969,2373.58Z" transform="translate(-407.578 -682.667)"/><g class="c"><path class="d" d="M1447.591,2349.26a17.124,17.124,0,0,1,5.988,3.221l19.541-7.026a2.116,2.116,0,0,0,1.223-2.631l-7.31-23.659a1.9,1.9,0,0,0-2.439-1.323l-7.4,2.667,4,12.978-7.339,2.624-4.011-12.978-7.452,2.674a2.13,2.13,0,0,0-1.216,2.638Zm34,6.357-1.237-3.968a1.9,1.9,0,0,0-2.439-1.323l-25.835,9.3a11.29,11.29,0,0,0-8.889-4.836l-12.025-38.933a3.923,3.923,0,0,0-3.676-2.859h-13.554a2.02,2.02,0,0,0-1.934,2.091v4.174a2.02,2.02,0,0,0,1.934,2.091h10.759l11.15,36.124a12.947,12.947,0,0,0-4.352,11.819c.74,5.141,4.587,9.444,9.351,10.34,7.282,1.4,13.589-4.544,13.717-12.089l25.806-9.294A2.134,2.134,0,0,0,1481.589,2355.617Zm-38.62,17.963a6.283,6.283,0,1,1,5.81-6.265A6.048,6.048,0,0,1,1442.969,2373.58Z" transform="translate(-407.578 -682.667)"/></g></g></svg>