<svg xmlns="http://www.w3.org/2000/svg" width="61.527" height="63.555" viewBox="0 0 61.527 63.555"><defs><style>.a{fill:#34d159;}</style></defs><g transform="translate(-717.83 -2189.146)"><path class="a" d="M1077.527,2980H1016v11.006h3.65v37.273h25.25v3.863a5.855,5.855,0,1,0,3.728,0v-3.863h25.257v-37.273h3.643Zm-30.763,59.834a2.134,2.134,0,1,1,2.134-2.134A2.141,2.141,0,0,1,1046.763,3039.834Zm-27.043-52.548v-3.564h54.085v3.564Zm50.435,37.273h-46.786v-33.552h46.786Z" transform="translate(-298.17 -790.854)"/><path class="a" d="M1040.827,3017.329l8.139,7.492,5.706-7.072,5.983,4.994,5.805-11.269.633,2.5,3.607-.911-2.355-9.327-8.964,3.479,1.345,3.472,2.433-.939-3.685,7.157-5.329-4.447-5.578,6.922-8.239-7.57-8.658,11.44,2.974,2.248Z" transform="translate(-302.691 -797.704)"/></g></svg>