<svg xmlns="http://www.w3.org/2000/svg" width="66.844" height="66.844" viewBox="0 0 66.844 66.844"><defs><style>.a{fill:#34d159;}.b{fill:#113e82;}</style></defs><g transform="translate(-439.089 -1631.756)"><path class="a" d="M673.977,2349.108a2.784,2.784,0,0,0-3.938,0l-11.957,11.954-4.994-4.992a2.785,2.785,0,0,0-3.938,3.939l6.963,6.962a2.779,2.779,0,0,0,3.938,0l13.926-13.924A2.786,2.786,0,0,0,673.977,2349.108Z" transform="translate(-186.963 -692.862)"/><path class="b" d="M681.059,2345.635a2.789,2.789,0,0,0-2.785,2.788,27.849,27.849,0,1,1-8.087-19.627,2.785,2.785,0,1,0,3.952-3.925,33.425,33.425,0,1,0,9.705,23.552A2.789,2.789,0,0,0,681.059,2345.635Z" transform="translate(-177.911 -683.244)"/></g></svg>