<svg xmlns="http://www.w3.org/2000/svg" width="116.301" height="31.644" viewBox="0 0 116.301 31.644"><defs><style>.a{fill:#113e82;fill-rule:evenodd;}</style></defs><g transform="translate(-923.86 -4112.287)"><path class="a" d="M1463.751,5768.334a1.814,1.814,0,0,0-1.837-1.734h-2.553a1.807,1.807,0,0,0-1.83,1.734l.1,27.341a1.692,1.692,0,0,0,.124.667,1.756,1.756,0,0,0,.943.943,1.789,1.789,0,0,0,.661.124h2.553a1.809,1.809,0,0,0,1.837-1.734Z" transform="translate(-447.972 -1653.898)"/><path class="a" d="M1471.31,5768.965v1.218a.966.966,0,0,0,1.025,1.019h17.954a1.553,1.553,0,0,0,1.067-.454,1.609,1.609,0,0,0,.461-1.074v-2.14a1.5,1.5,0,0,0-1.528-1.528s-17.349,1.734-17.954,1.838a1.051,1.051,0,0,0-1.025,1.122Z" transform="translate(-452.269 -1653.71)"/><path class="a" d="M1445.673,5797.41a6.991,6.991,0,0,1-7.24-7.137v-10.921H1437.1a1.317,1.317,0,0,1-1.225-1.225v-1.837a1.239,1.239,0,0,1,.365-.854,1.223,1.223,0,0,1,.86-.364h1.328v-6.737a1.714,1.714,0,0,1,.124-.668,1.81,1.81,0,0,1,.378-.564,1.645,1.645,0,0,1,.564-.372,1.725,1.725,0,0,1,.668-.131h2.546a1.7,1.7,0,0,1,1.631,1.734v6.737h3.984a1.127,1.127,0,0,1,.475.082,1.155,1.155,0,0,1,.4.262,1.186,1.186,0,0,1,.344.874v1.837a1.245,1.245,0,0,1-1.225,1.225h-3.978v10.1a3.165,3.165,0,0,0,3.372,3.365h.406a1.326,1.326,0,0,1,.516.089,1.229,1.229,0,0,1,.433.289,1.333,1.333,0,0,1,.289.434,1.318,1.318,0,0,1,.089.516v1.934a1.365,1.365,0,0,1-.4.936,1.343,1.343,0,0,1-.929.393Z" transform="translate(-441.221 -1653.898)"/><path class="a" d="M1395.425,5789.35c0-5.815-3.469-11.63-11.321-11.63-7.246,0-11.224,5.711-11.224,11.63,0,6.324,4.28,11.933,11.32,11.933,4.8,0,9.49-2.45,10.405-6.627a1.152,1.152,0,0,0-1.018-1.328h-3.468a1.591,1.591,0,0,0-.826.213,1.685,1.685,0,0,0-.606.6,5.072,5.072,0,0,1-4.487,2.147,5.286,5.286,0,0,1-5.306-5h14.589a1.729,1.729,0,0,0,1.941-1.94ZM1379,5786.907a5.024,5.024,0,0,1,5.106-4.494,5.216,5.216,0,0,1,5.3,4.494Z" transform="translate(-421.576 -1657.366)"/><path class="a" d="M1491.785,5789.35c0-5.815-3.468-11.63-11.327-11.63-7.24,0-11.217,5.711-11.217,11.63,0,6.324,4.287,11.933,11.32,11.933,4.8,0,9.49-2.45,10.405-6.627a1.152,1.152,0,0,0-1.019-1.328h-3.468a1.592,1.592,0,0,0-.826.213,1.74,1.74,0,0,0-.606.6,5.14,5.14,0,0,1-4.59,2.147,5.263,5.263,0,0,1-5.2-5h14.589a1.729,1.729,0,0,0,1.941-1.94Zm-16.427-2.443a5.2,5.2,0,0,1,10.309,0Z" transform="translate(-451.623 -1657.366)"/><path class="a" d="M1401.452,5766.819H1354.32a1.987,1.987,0,0,0-.743.145,1.922,1.922,0,0,0-.626.42,1.887,1.887,0,0,0-.42.633,1.921,1.921,0,0,0-.144.736l.1,18.566s-10.1-18.36-10.6-19.282a3.547,3.547,0,0,0-1.3-1.273,3.493,3.493,0,0,0-1.755-.455h-3.881a1.861,1.861,0,0,0-.743.145,1.991,1.991,0,0,0-1.053,1.046,1.987,1.987,0,0,0-.145.744v27.141a1.875,1.875,0,0,0,1.941,1.934h2.443a1.875,1.875,0,0,0,1.941-1.934l-.1-18.979s10.2,18.471,10.708,19.18a3.155,3.155,0,0,0,2.959,1.734h3.572a1.875,1.875,0,0,0,1.941-1.934v-23.976h43.045a1.358,1.358,0,0,0,.936-.393,1.389,1.389,0,0,0,.392-.936v-1.934a1.34,1.34,0,0,0-1.328-1.329Z" transform="translate(-409.14 -1653.807)"/><path class="a" d="M1416.819,5782.207c2.044,0,3.572.715,4.184,2.044.207.612.716.715,1.431.715h2.856a1.1,1.1,0,0,0,1.019-1.025c0-3.262-3.978-6.221-9.49-6.221-5.7,0-9.483,2.752-9.483,7.047,0,3.365,2.65,5.306,5.815,6.221,1.528.31,4.081.922,5.306,1.329,1.218.31,2.443.716,2.443,1.837,0,1.837-1.831,2.346-3.978,2.346-1.941,0-3.875-.819-4.384-2.243-.31-.819-.922-.916-1.734-.916h-2.863a1.206,1.206,0,0,0-1.122,1.122v.406c0,3.166,4.287,6.428,10.206,6.428,4.081,0,9.9-1.734,9.9-7.24,0-3.269-2.147-5.512-5.712-6.427-1.328-.31-4.6-1.225-5.306-1.329-1.328-.406-2.553-.819-2.553-1.837,0-1.734,1.528-2.244,3.468-2.244Z" transform="translate(-432.159 -1657.366)"/></g></svg>