<svg xmlns="http://www.w3.org/2000/svg" width="72.258" height="34.385" viewBox="0 0 72.258 34.385"><defs><style>.a,.b{fill:#113e82;}.b{fill-rule:evenodd;}</style></defs><g transform="translate(-608.677 -4110.91)"><path class="a" d="M926.293,5781.43H915.715a4.487,4.487,0,0,0,1.185,2.89,3.66,3.66,0,0,0,1.228.812,3.6,3.6,0,0,0,1.449.248,3.434,3.434,0,0,0,2.107-.605,8.452,8.452,0,0,0,1.866-2.237l2.875,1.61a11.773,11.773,0,0,1-1.4,1.948,7.873,7.873,0,0,1-1.594,1.335,6.329,6.329,0,0,1-1.828.75,8.945,8.945,0,0,1-2.136.248,6.936,6.936,0,0,1-5.3-2.127,7.932,7.932,0,0,1-2-5.663,8.134,8.134,0,0,1,1.939-5.657,7.386,7.386,0,0,1,10.329-.069,8.173,8.173,0,0,1,1.88,5.712Zm-3.5-2.787a3.263,3.263,0,0,0-3.438-2.726,3.376,3.376,0,0,0-1.67.413,3.412,3.412,0,0,0-1.257,1.17,4.112,4.112,0,0,0-.482,1.143Zm6.043-5.388h3.408v1.314a6.5,6.5,0,0,1,1.668-1.349,3.782,3.782,0,0,1,1.755-.378,5.506,5.506,0,0,1,2.816.881l-1.558,3.118a3.242,3.242,0,0,0-1.9-.7q-2.777,0-2.78,4.212v7.652h-3.408Zm14.293,0v14.754h-3.409v-14.754Zm-3.921-3.138a2.081,2.081,0,0,1,.651-1.535,2.115,2.115,0,0,1,1.558-.661,2.151,2.151,0,0,1,1.58.661,2.068,2.068,0,0,1,.651,1.548,2.156,2.156,0,0,1-.659,1.583,2.08,2.08,0,0,1-1.558.646,2.24,2.24,0,0,1-2.231-2.243Zm10.57,6.311v11.589h-3.424v-11.589h-1.214v-3.172h1.214v-2.7a6.183,6.183,0,0,1,.966-3.937,4.77,4.77,0,0,1,3.877-1.61,6.74,6.74,0,0,1,2.29.53v3.482h-2.165c-.717,0-1,0-1.273.372a3.988,3.988,0,0,0-.27,2v1.865h5.706v3.172Z" transform="translate(-277.91 -1653.402)"/><path class="a" d="M977.465,5774.574v14.754h-3.409v-14.754Zm-3.921-3.138a2.078,2.078,0,0,1,.652-1.535,2.185,2.185,0,0,1,3.13,0,2.047,2.047,0,0,1,.659,1.548,2.155,2.155,0,0,1-.659,1.583,2.082,2.082,0,0,1-1.558.647,2.24,2.24,0,0,1-2.231-2.243Z" transform="translate(-297.049 -1654.721)"/><path class="b" d="M887.879,5775.92c2.378,2.264,5.852,5.726,5.852,5.726s7.973-10.419,15.522-15.436l.586,1.748c-2.758,1.927-11.046,12.5-14.294,21.843,0,0-8.654-9.47-10.3-11.631Z" transform="translate(-269.517 -1653.777)"/><path class="a" d="M892.182,5796.391a15.173,15.173,0,0,0,12.779-6.978h2.326a17.193,17.193,0,1,1-5.647-22.586l-1.36,1.514a15.2,15.2,0,1,0-8.113,28.05Z" transform="translate(-266.323 -1653.086)"/></g></svg>