<svg xmlns="http://www.w3.org/2000/svg" width="66.877" height="66.877" viewBox="0 0 66.877 66.877"><defs><style>.a{fill:#34d159;}</style></defs><path class="a" d="M668.731,3016.818v-21.493a1.36,1.36,0,0,0-.218-.7l.02-.014-8.36-13.93a1.391,1.391,0,0,0-1.195-.676H622.753a1.391,1.391,0,0,0-1.195.676l-8.36,13.93.021.014a1.361,1.361,0,0,0-.219.7v39.016a1.389,1.389,0,0,0,1.393,1.388h35.426a15.318,15.318,0,1,0,18.911-18.911Zm-10.542-34.029,6.688,11.142h-15.9l-2.23-11.142Zm-20.361,0h6.078l2.251,11.142H635.6Zm8.611,13.93v5.571H635.287l-.018-5.571Zm-22.9-13.93h11.447l-2.207,11.142H616.854Zm25.754,50.158H615.787v-36.228h16.719v6.965a1.394,1.394,0,0,0,1.393,1.394h13.932a1.4,1.4,0,0,0,1.394-1.394l-.022-6.965h16.741V3016.3c-.46-.043-.923-.071-1.394-.071a15.342,15.342,0,0,0-15.326,15.325C649.225,3032.022,649.254,3032.484,649.3,3032.947Zm15.255,11.142a12.54,12.54,0,1,1,12.539-12.536A12.55,12.55,0,0,1,664.551,3044.088Z" transform="translate(-613 -2980)"/></svg>