<svg xmlns="http://www.w3.org/2000/svg" width="66.282" height="75.415" viewBox="0 0 66.282 75.415"><defs><style>.a{fill:#34d159;}</style></defs><path class="a" d="M235.559,2968a33.18,33.18,0,0,0-33.141,33.14v17.971a6.636,6.636,0,0,0,6.628,6.631h2.59a6.628,6.628,0,0,0,12.877-2.212v-17.971a6.628,6.628,0,0,0-12.877-2.206h-2.59a6.679,6.679,0,0,0-2.209.377v-2.59a28.722,28.722,0,0,1,57.445,0v2.59a6.679,6.679,0,0,0-2.209-.377h-2.59a6.628,6.628,0,0,0-12.877,2.206v17.971a6.63,6.63,0,0,0,8.552,6.346,6.64,6.64,0,0,1-6.343,4.7h-7.009a6.627,6.627,0,1,0,0,4.418h7.009a11.062,11.062,0,0,0,11.047-11.049v-2.206h2.21a6.636,6.636,0,0,0,6.628-6.631V3001.14A33.18,33.18,0,0,0,235.559,2968Zm-19.885,37.558a2.209,2.209,0,0,1,4.419,0v17.971a2.209,2.209,0,1,1-4.419,0Zm-6.629,2.212h2.21v13.553h-2.21a2.216,2.216,0,0,1-2.209-2.213v-9.135A2.21,2.21,0,0,1,209.046,3007.77ZM235.559,3039a2.209,2.209,0,1,1,2.209-2.213A2.211,2.211,0,0,1,235.559,3039Zm19.885-15.467a2.209,2.209,0,1,1-4.419,0v-17.971a2.209,2.209,0,0,1,4.419,0Zm8.838-4.418a2.216,2.216,0,0,1-2.209,2.213h-2.21V3007.77h2.21a2.21,2.21,0,0,1,2.209,2.206Z" transform="translate(-202.418 -2968)"/></svg>