<svg xmlns="http://www.w3.org/2000/svg" width="137.308" height="29.351" viewBox="0 0 137.308 29.351"><defs><style>.a{fill:#113e82;fill-rule:evenodd;}</style></defs><path class="a" d="M665.487,5796.958l-5.47-20.1-8.106,18.608a4.038,4.038,0,0,1-1.062,1.418,2.307,2.307,0,0,1-1.5.468,2.656,2.656,0,0,1-2.557-1.886l-6.558-14.245.459,15.739h-5v-26.915a2.375,2.375,0,0,1,2.479-2.044,2.624,2.624,0,0,1,1.455.434,2.658,2.658,0,0,1,1.063,1.259l8.814,20.226,8.813-20.226a2.455,2.455,0,0,1,2.4-1.693,2.406,2.406,0,0,1,2.4,2.044l7.319,26.915Zm-93.6.13a13.831,13.831,0,0,1-5.548-1.1,13.588,13.588,0,0,1-7.319-7.707,16.109,16.109,0,0,1-1.023-5.788,15.567,15.567,0,0,1,1.023-5.747,12.928,12.928,0,0,1,2.912-4.4,13.062,13.062,0,0,1,4.407-2.835,14.825,14.825,0,0,1,5.548-1.018h15.5v5h-15.5a8.951,8.951,0,0,0-3.581.708,8.165,8.165,0,0,0-2.794,1.886,8.74,8.74,0,0,0-1.849,2.911,10.084,10.084,0,0,0-.669,3.737,10.3,10.3,0,0,0,.669,3.743,9.163,9.163,0,0,0,1.849,2.987,8.687,8.687,0,0,0,2.794,1.927,8.951,8.951,0,0,0,3.581.708h12.237v-7.432H571.221v-4.212h17.943v16.64Zm21.354,0v-28.6h5v28.6Zm16.943-1.1a13.834,13.834,0,0,0,5.548,1.1h17.274v-16.64H615.067v4.212h12.906v7.432H615.736a8.951,8.951,0,0,1-3.581-.708,8.686,8.686,0,0,1-2.794-1.927,9.172,9.172,0,0,1-1.849-2.987,10.3,10.3,0,0,1-.669-3.743,10.083,10.083,0,0,1,.669-3.737,8.749,8.749,0,0,1,1.849-2.911,8.165,8.165,0,0,1,2.794-1.886,8.951,8.951,0,0,1,3.581-.708h15.5v-5h-15.5a14.828,14.828,0,0,0-5.548,1.018,13.069,13.069,0,0,0-4.407,2.835,12.925,12.925,0,0,0-2.912,4.4,15.567,15.567,0,0,0-1.023,5.747,16.109,16.109,0,0,0,1.023,5.788,13.588,13.588,0,0,0,7.319,7.707Zm75.915-1.844a2.792,2.792,0,0,1-2.881,3.069h-.012a2.753,2.753,0,0,1-2.868-2.987,2.815,2.815,0,0,1,2.952-3.062A2.739,2.739,0,0,1,686.1,5794.144Zm-3.683.041c0,.909.247,1.563.826,1.563h.011c.52,0,.768-.661.768-1.562,0-.791-.213-1.555-.779-1.555C682.62,5792.63,682.419,5793.421,682.419,5794.185Zm-2.459,1.28a1.977,1.977,0,0,1-.814.138,1.289,1.289,0,0,1-1.31-1.438,1.266,1.266,0,0,1,1.287-1.418,2.252,2.252,0,0,1,.8.131l.271-1.521a3.857,3.857,0,0,0-1.191-.179,2.959,2.959,0,0,0-3.234,3.069,2.736,2.736,0,0,0,2.975,2.952,4.166,4.166,0,0,0,1.416-.213Zm-5.812,1.748a1.139,1.139,0,0,0,1.169-1.218,1.152,1.152,0,0,0-1.158-1.232,1.167,1.167,0,0,0-1.168,1.232,1.147,1.147,0,0,0,1.146,1.218Zm12.673-.124h1.995v-3.406a1.18,1.18,0,0,1,.059-.427.649.649,0,0,1,.59-.44c.46,0,.6.455.6,1v3.276h2v-3.406a1.417,1.417,0,0,1,.047-.406.624.624,0,0,1,.6-.461c.437,0,.6.427.6,1.115v3.158h2v-3.468c0-1.535-.626-2.457-1.841-2.457a2.087,2.087,0,0,0-.968.227,2.433,2.433,0,0,0-.744.647h-.023a1.511,1.511,0,0,0-1.475-.874,1.944,1.944,0,0,0-1.628.826h-.036l-.095-.709h-1.723c.023.558.047,1.218.047,1.941Zm-18.912-24.265h-1.021v-3.1h-.916v-.88h2.869v.88h-.932Zm5.385,0h-.968l-.053-1.369c-.012-.413-.024-.929-.024-1.493h-.018c-.1.5-.253,1.066-.359,1.445l-.36,1.335h-.779l-.313-1.329c-.089-.378-.207-.943-.283-1.452h-.012c-.017.372-.034.764-.049,1.108v.007l-.01.241-.005.138-.06,1.369h-.92l.266-3.977h1.287l.259,1.128c.106.461.218.97.3,1.445h.018c.094-.468.217-1,.324-1.452l.284-1.122h1.269Z" transform="translate(-558 -5768)"/></svg>